<svg xmlns="http://www.w3.org/2000/svg" width="48" height="48" viewBox="0 0 2500 2500" version="1.1">
	<path d="M 1236.500 24.108 C 1215.854 25.230, 1203.929 27.481, 1182.500 34.302 C 1154.671 43.161, 1184.378 24.170, 610.500 399.971 C 319.550 590.499, 77.225 749.502, 72 753.311 C 58.648 763.045, 38.109 784.071, 29.777 796.534 C -0.008 841.088, -7.391 893.294, 8.922 944 C 20.053 978.600, 42.270 1009.448, 72 1031.584 C 100.819 1053.041, 130.289 1064.898, 167.500 1070.007 C 171.900 1070.611, 196.313 1071.368, 221.750 1071.689 L 268 1072.273 268 1473.568 L 268 1874.864 212.750 1875.271 C 151.629 1875.721, 149.270 1875.922, 127.473 1882.529 C 66.183 1901.107, 19.633 1950.365, 4.648 2012.500 C 0.484 2029.768, 0.500 2029.070, 0.500 2188 C 0.500 2358.141, 0.117 2348.074, 7.515 2372.482 C 20.578 2415.575, 48.758 2451.782, 87.188 2474.845 C 104.835 2485.436, 128.406 2494.129, 149.228 2497.726 C 159.022 2499.417, 210.272 2499.500, 1250 2499.500 C 2289.728 2499.500, 2340.978 2499.417, 2350.772 2497.726 C 2409.863 2487.519, 2460.484 2448.274, 2484.539 2394.022 C 2492.388 2376.317, 2499 2350.710, 2499 2338.011 C 2499 2335.805, 2499.450 2334, 2500 2334 C 2500.662 2334, 2501 2284.147, 2501 2186.441 C 2501 2088.323, 2500.665 2039.089, 2500 2039.500 C 2499.405 2039.868, 2499 2038.673, 2499 2036.548 C 2499 2029.890, 2495.939 2013.915, 2492.471 2002.474 C 2483.605 1973.223, 2469.130 1949.062, 2447.534 1927.466 C 2425.938 1905.870, 2401.777 1891.395, 2372.527 1882.529 C 2350.730 1875.922, 2348.371 1875.721, 2287.250 1875.271 L 2232 1874.864 2232 1473.568 L 2232 1072.273 2278.250 1071.689 C 2303.688 1071.368, 2328.100 1070.611, 2332.500 1070.007 C 2369.711 1064.898, 2399.181 1053.041, 2428 1031.584 C 2457.730 1009.448, 2479.947 978.600, 2491.078 944 C 2495.195 931.204, 2499 912.211, 2499 904.460 C 2499 902.072, 2499.450 899.840, 2500 899.500 C 2500.550 899.160, 2501 895.507, 2501 891.382 C 2501 887.257, 2500.617 884.119, 2500.149 884.408 C 2499.680 884.698, 2499.022 880.743, 2498.685 875.620 C 2497.011 850.131, 2486.496 820.902, 2470.235 796.534 C 2462.117 784.368, 2440.540 762.253, 2428 753.245 C 2407.879 738.792, 1359.459 53.124, 1349.500 47.906 C 1314.252 29.435, 1278.197 21.842, 1236.500 24.108 M 1243.018 203.056 C 1240.553 203.561, 1236.503 204.999, 1234.018 206.250 C 1231.533 207.501, 994.892 362.172, 708.149 549.964 C 309.239 811.214, 187.233 891.574, 188.649 892.130 C 191.070 893.080, 2308.931 893.080, 2311.351 892.130 C 2312.768 891.574, 2190.417 810.998, 1790.351 549.017 C 1502.783 360.705, 1265.475 205.860, 1263 204.917 C 1257.157 202.691, 1248.658 201.899, 1243.018 203.056 M 0.343 892.500 C 0.346 896.900, 0.522 898.576, 0.733 896.224 C 0.945 893.872, 0.942 890.272, 0.727 888.224 C 0.512 886.176, 0.339 888.100, 0.343 892.500 M 447 1473.500 L 447 1875 580.500 1875 L 714 1875 714 1473.500 L 714 1072 580.500 1072 L 447 1072 447 1473.500 M 893 1473.500 L 893 1875 1027 1875 L 1161 1875 1161 1473.500 L 1161 1072 1027 1072 L 893 1072 893 1473.500 M 1339 1473.500 L 1339 1875 1473 1875 L 1607 1875 1607 1473.500 L 1607 1072 1473 1072 L 1339 1072 1339 1473.500 M 1786 1473.500 L 1786 1875 1919.500 1875 L 2053 1875 2053 1473.500 L 2053 1072 1919.500 1072 L 1786 1072 1786 1473.500 M 0.487 2187.500 C 0.487 2268.900, 0.605 2302.052, 0.750 2261.172 C 0.895 2220.291, 0.895 2153.691, 0.750 2113.172 C 0.605 2072.652, 0.487 2106.100, 0.487 2187.500 M 179 2187.500 L 179 2321 1250 2321 L 2321 2321 2321 2187.500 L 2321 2054 1250 2054 L 179 2054 179 2187.500" stroke="none" fill="#000000" fill-rule="evenodd"></path>
</svg>