<svg xmlns="http://www.w3.org/2000/svg" width="48" height="48" viewBox="0 0 2500 2500" version="1.1">
	<path d="M 609.393 1.088 C 583.546 5.412, 558.903 23.341, 546.047 47.175 C 541.247 56.073, 539.553 60.717, 537.530 70.511 C 536.159 77.147, 535.989 118.519, 535.989 446.500 C 535.989 779.398, 536.143 815.780, 537.579 822.766 C 543.217 850.198, 564.789 875.744, 591.525 886.649 C 612.477 895.196, 639.730 894.897, 660.238 885.896 C 686.581 874.334, 706.818 849.853, 712.409 822.785 C 713.819 815.960, 714 799.219, 714 675.542 L 714 536 1118.428 536 C 1403.078 536, 1525.160 535.679, 1530.636 534.918 C 1565.296 530.097, 1595.043 503.737, 1604.461 469.500 C 1607.062 460.047, 1607.625 439.192, 1605.556 428.979 C 1601.712 410.007, 1594.865 397.660, 1580.058 383 C 1569.909 372.951, 1564.015 368.945, 1551.319 363.464 C 1535.162 356.489, 1569.266 357, 1119.889 357 L 714.040 357 713.761 214.250 L 713.482 71.500 711.176 64.027 C 701.170 31.606, 672.549 6.352, 639.786 1.035 C 632.425 -0.159, 616.686 -0.132, 609.393 1.088 M 1859.393 1.088 C 1833.546 5.412, 1808.903 23.341, 1796.047 47.175 C 1791.247 56.073, 1789.553 60.717, 1787.530 70.511 C 1786.159 77.147, 1785.989 118.519, 1785.989 446.500 C 1785.989 779.398, 1786.143 815.780, 1787.579 822.766 C 1793.217 850.198, 1814.789 875.744, 1841.525 886.649 C 1862.477 895.196, 1889.730 894.897, 1910.238 885.896 C 1936.581 874.334, 1956.818 849.853, 1962.409 822.785 C 1963.819 815.960, 1964 799.217, 1964 675.519 L 1964 535.954 2106.250 536.239 L 2248.500 536.525 2255.695 538.751 C 2286.112 548.160, 2308.527 570.124, 2317.692 599.500 L 2320.500 608.500 2320.500 1428.500 L 2320.500 2248.500 2317.691 2257.500 C 2308.702 2286.303, 2286.303 2308.702, 2257.500 2317.691 L 2248.500 2320.500 1250 2320.500 L 251.500 2320.500 242.500 2317.684 C 213.487 2308.607, 191.393 2286.513, 182.316 2257.500 L 179.500 2248.500 179.500 1428.500 L 179.500 608.500 182.308 599.500 C 188.498 579.659, 201.794 561.938, 219.146 550.403 C 233.451 540.893, 245.297 537.327, 267.027 535.989 C 284.023 534.942, 294.832 532.671, 304.623 528.089 C 328.825 516.764, 347.498 494.813, 354.461 469.500 C 357.062 460.047, 357.625 439.192, 355.556 428.979 C 351.712 410.007, 344.865 397.660, 330.058 383 C 311.880 365.002, 292.159 356.985, 266.119 357.009 C 161.192 357.102, 63.619 421.730, 21.793 518.840 C 12.606 540.171, 6.899 560.141, 2.316 587 C 0.605 597.025, 0.510 634.712, 0.214 1420 C -0.011 2015.286, 0.209 2246.091, 1.011 2255.500 C 6.359 2318.301, 33.594 2376.709, 78.443 2421.557 C 122.968 2466.083, 180.706 2493.165, 243.500 2498.980 C 258.800 2500.396, 2241.200 2500.396, 2256.500 2498.980 C 2376.219 2487.894, 2473.682 2399.044, 2495.557 2281.046 C 2496.928 2273.646, 2498.333 2263.618, 2498.678 2258.761 C 2499.022 2253.904, 2499.686 2249.694, 2500.152 2249.406 C 2500.619 2249.118, 2501 1879.207, 2501 1427.382 C 2501 879.970, 2500.666 606.088, 2500 606.500 C 2499.388 606.878, 2499 605.303, 2499 602.437 C 2499 590.259, 2493.087 560.442, 2487.015 542 C 2453.279 439.540, 2362.273 367.375, 2255 358.020 C 2248.002 357.410, 2188.801 357.014, 2103.770 357.009 L 1964.040 357 1963.761 214.250 L 1963.482 71.500 1961.176 64.027 C 1951.170 31.606, 1922.549 6.352, 1889.786 1.035 C 1882.425 -0.159, 1866.686 -0.132, 1859.393 1.088 M 0.498 1428.500 C 0.498 1880.600, 0.611 2065.400, 0.750 1839.168 C 0.889 1612.935, 0.889 1243.035, 0.750 1017.168 C 0.611 791.300, 0.498 976.400, 0.498 1428.500 M 596.500 1162.981 C 584.144 1165.171, 575.728 1167.305, 566 1170.712 C 509.329 1190.560, 465.943 1238.288, 451.654 1296.500 C 447.894 1311.818, 446.759 1321.988, 446.797 1340 C 446.858 1368.211, 451.577 1389.546, 463.498 1415.500 C 482.235 1456.293, 520.555 1491.454, 563 1506.799 C 584.484 1514.566, 601.161 1517.424, 625 1517.424 C 643.232 1517.424, 654.695 1516.105, 669 1512.359 C 700.680 1504.065, 727.262 1488.993, 750.355 1466.229 C 799.335 1417.947, 816.031 1347.081, 793.865 1281.555 C 774.605 1224.622, 726.737 1180.535, 668.500 1166.094 C 646.494 1160.637, 616.930 1159.359, 596.500 1162.981 M 1221.500 1162.981 C 1209.144 1165.171, 1200.728 1167.305, 1191 1170.712 C 1134.329 1190.560, 1090.943 1238.288, 1076.654 1296.500 C 1072.894 1311.818, 1071.759 1321.988, 1071.797 1340 C 1071.858 1368.211, 1076.577 1389.546, 1088.498 1415.500 C 1107.235 1456.293, 1145.555 1491.454, 1188 1506.799 C 1209.484 1514.566, 1226.161 1517.424, 1250 1517.424 C 1268.232 1517.424, 1279.695 1516.105, 1294 1512.359 C 1325.680 1504.065, 1352.262 1488.993, 1375.355 1466.229 C 1424.335 1417.947, 1441.031 1347.081, 1418.865 1281.555 C 1399.605 1224.622, 1351.737 1180.535, 1293.500 1166.094 C 1271.494 1160.637, 1241.930 1159.359, 1221.500 1162.981 M 1846.500 1162.981 C 1834.144 1165.171, 1825.728 1167.305, 1816 1170.712 C 1759.329 1190.560, 1715.943 1238.288, 1701.654 1296.500 C 1697.894 1311.818, 1696.759 1321.988, 1696.797 1340 C 1696.858 1368.437, 1701.627 1389.811, 1713.760 1416.032 C 1732.528 1456.592, 1770.703 1491.508, 1813 1506.799 C 1834.484 1514.566, 1851.161 1517.424, 1875 1517.424 C 1893.232 1517.424, 1904.695 1516.105, 1919 1512.359 C 1950.680 1504.065, 1977.262 1488.993, 2000.355 1466.229 C 2049.335 1417.947, 2066.031 1347.081, 2043.865 1281.555 C 2024.605 1224.622, 1976.737 1180.535, 1918.500 1166.094 C 1896.494 1160.637, 1866.930 1159.359, 1846.500 1162.981 M 616 1696.642 C 586.203 1698.336, 557.297 1707.245, 531.772 1722.602 C 509.943 1735.735, 485.735 1759.943, 472.602 1781.772 C 455.022 1810.992, 446.839 1840.606, 446.839 1875 C 446.839 1909.394, 455.022 1939.008, 472.602 1968.228 C 485.735 1990.057, 509.943 2014.265, 531.772 2027.398 C 560.992 2044.978, 590.606 2053.161, 625 2053.161 C 659.394 2053.161, 689.008 2044.978, 718.228 2027.398 C 740.057 2014.265, 764.265 1990.057, 777.398 1968.228 C 794.978 1939.008, 803.161 1909.394, 803.161 1875 C 803.161 1845.458, 797.821 1822.053, 785.200 1796.272 C 776.125 1777.736, 766.480 1764.365, 751.057 1748.943 C 732.114 1730, 713.084 1717.601, 688 1707.859 C 667.814 1700.020, 638.076 1695.387, 616 1696.642" stroke="none" fill="#000000" fill-rule="evenodd"></path>
</svg>