<svg xmlns="http://www.w3.org/2000/svg" width="48" height="48" viewBox="0 0 2500 2500" version="1.1">
	<path d="M 960.500 0.666 C 877.161 7.949, 803.474 51.849, 757.843 121.400 C 749.237 134.519, 738.195 155.711, 732.913 169.246 L 729.500 177.993 634.500 178.015 C 538.283 178.038, 513.325 178.668, 494.775 181.542 C 447.338 188.892, 402.247 209.195, 364.940 240.004 C 353.144 249.746, 333.689 269.649, 324.866 281 C 292.845 322.197, 273.248 371.489, 269.007 421.500 C 268.211 430.884, 267.991 688.446, 268.213 1347.500 C 268.508 2221.534, 268.598 2260.948, 270.322 2271 C 280.782 2331.983, 305.263 2380.425, 346.419 2421.581 C 388.063 2463.225, 438.833 2488.537, 499.251 2497.779 C 509.815 2499.395, 555.544 2499.500, 1250 2499.500 C 1944.456 2499.500, 1990.185 2499.395, 2000.749 2497.779 C 2053.128 2489.767, 2097.654 2469.888, 2136.927 2436.980 C 2186.797 2395.192, 2217.933 2339.474, 2229.678 2271 C 2231.402 2260.948, 2231.492 2221.531, 2231.782 1347 C 2231.993 707.900, 2231.765 430.046, 2231.022 422 C 2228.917 399.217, 2223.561 374.628, 2216.503 355.357 C 2212.056 343.214, 2197.836 314.120, 2191.401 304 C 2177.256 281.753, 2155.031 256.498, 2135.151 240.080 C 2097.747 209.190, 2052.711 188.899, 2005.225 181.542 C 1986.675 178.668, 1961.717 178.038, 1865.500 178.015 L 1770.500 177.993 1767.087 169.246 C 1761.805 155.711, 1750.763 134.519, 1742.157 121.400 C 1703.120 61.899, 1642.236 20.202, 1573 5.551 C 1548.115 0.285, 1570.484 0.643, 1255.500 0.473 C 1095.450 0.387, 962.700 0.474, 960.500 0.666 M 966.393 180.088 C 949.792 182.865, 934.321 190.807, 921.463 203.151 C 907.911 216.161, 901.011 227.581, 895.765 245.684 C 893.526 253.412, 893.500 254.167, 893.500 312.500 C 893.500 370.833, 893.526 371.588, 895.765 379.316 C 901.011 397.419, 907.911 408.839, 921.463 421.849 C 934.661 434.520, 949.713 442.125, 967.214 444.965 C 975.917 446.377, 1524.083 446.377, 1532.786 444.965 C 1550.366 442.112, 1565.333 434.525, 1578.703 421.689 C 1591.873 409.046, 1599.575 396.087, 1604.669 378 C 1606.349 372.035, 1606.500 366.647, 1606.500 312.500 C 1606.500 254.167, 1606.474 253.412, 1604.235 245.684 C 1598.989 227.581, 1592.089 216.161, 1578.537 203.151 C 1565.339 190.480, 1550.287 182.875, 1532.786 180.035 C 1524.993 178.771, 973.961 178.822, 966.393 180.088 M 525 358.032 C 505.809 360.302, 488.919 368.214, 475.162 381.379 C 462.643 393.359, 455.043 405.321, 450.308 420.500 L 447.500 429.500 447.500 1339 C 447.500 2216.345, 447.565 2248.730, 449.325 2255 C 457.080 2282.624, 478.643 2306.188, 504.944 2315.780 C 520.303 2321.382, 465.797 2321, 1250 2321 C 2034.203 2321, 1979.697 2321.382, 1995.056 2315.780 C 2021.253 2306.226, 2043.061 2282.401, 2050.690 2255 C 2052.431 2248.749, 2052.500 2213.589, 2052.500 1339 L 2052.500 429.500 2049.692 420.500 C 2040.413 390.759, 2016.314 367.882, 1985.726 359.779 C 1977.596 357.625, 1976.380 357.596, 1881.888 357.254 L 1786.276 356.907 1785.574 369.704 C 1782.826 419.789, 1767.890 464.991, 1740.538 506 C 1701.506 564.521, 1639.256 606.221, 1570.500 619.907 C 1546.438 624.696, 1560.107 624.500, 1250 624.500 C 939.893 624.500, 953.562 624.696, 929.500 619.907 C 860.684 606.209, 798.529 564.572, 759.462 506 C 732.083 464.950, 717.186 419.878, 714.430 369.750 L 713.729 357 622.615 357.131 C 572.502 357.204, 528.575 357.609, 525 358.032 M 1589 983.979 C 1578.246 986.305, 1573.379 988.083, 1564.171 993.049 C 1554.377 998.332, 1545.875 1005.129, 1539.587 1012.704 C 1536.755 1016.117, 1444.985 1162.029, 1335.654 1336.954 C 1226.324 1511.879, 1136.563 1654.988, 1136.186 1654.974 C 1135.809 1654.960, 1071.672 1607.064, 993.660 1548.539 C 901.777 1479.607, 849.121 1440.732, 844.160 1438.164 C 828.790 1430.209, 812.003 1427.082, 794.951 1428.996 C 782.291 1430.417, 775.243 1432.399, 764.500 1437.560 C 746.215 1446.342, 732.169 1460.538, 723.002 1479.500 C 715.150 1495.742, 712.703 1510.660, 714.956 1528.556 C 717.621 1549.727, 725.993 1566.872, 740.663 1581.201 C 743.873 1584.337, 829.022 1648.786, 929.882 1724.422 C 1123.817 1869.856, 1121.444 1868.166, 1138 1872.663 C 1147.315 1875.193, 1172.798 1875.167, 1182.336 1872.617 C 1199.607 1868, 1210.447 1861.741, 1223.078 1849.092 L 1232.656 1839.500 1458.561 1478 C 1582.809 1279.175, 1686.172 1113.042, 1688.257 1108.816 C 1697.251 1090.585, 1699.036 1068.994, 1693.328 1047.500 C 1689.438 1032.854, 1679.315 1015.967, 1668.703 1006.420 C 1646.082 986.070, 1617.084 977.905, 1589 983.979" stroke="none" fill="#000000" fill-rule="evenodd"></path>
</svg>