<svg xmlns="http://www.w3.org/2000/svg" width="48" height="48" viewBox="0 0 2500 2500" version="1.1">
	<path d="M 1205 0.587 C 1156.563 2.744, 1119.741 5.932, 1078 11.582 C 907.089 34.717, 738.119 95.847, 589.500 188.314 C 471.607 261.664, 364.013 357.147, 274.902 467.500 C 183.507 580.681, 110.839 713.805, 64.018 853.828 C 32.522 948.018, 13.095 1041.993, 4.547 1141.500 C 1.148 1181.066, 0.528 1197.765, 0.519 1250 C 0.508 1309.430, 1.992 1338.892, 7.542 1389.500 C 27.656 1572.887, 89.934 1752.378, 188.314 1910.500 C 272.288 2045.469, 384.980 2166.549, 515 2261.503 C 615.897 2335.188, 732.635 2395.317, 853.500 2435.854 C 947.420 2467.354, 1041.825 2486.891, 1141.500 2495.453 C 1181.208 2498.865, 1197.719 2499.477, 1250 2499.477 C 1309.506 2499.477, 1339.061 2497.990, 1389.500 2492.458 C 1572.887 2472.344, 1752.378 2410.066, 1910.500 2311.686 C 1971.292 2273.863, 2027.771 2231.356, 2086 2179.602 C 2103.445 2164.097, 2164.097 2103.445, 2179.602 2086 C 2259.602 1995.991, 2318.801 1908.773, 2369.990 1805.500 C 2439.600 1665.061, 2480.846 1519.455, 2495.026 1364.089 C 2496.884 1343.737, 2498.993 1308.758, 2498.997 1298.250 C 2498.999 1292.086, 2499.399 1288, 2500 1288 C 2500.649 1288, 2501 1274.480, 2501 1249.441 C 2501 1223.990, 2500.660 1211.092, 2500 1211.500 C 2499.358 1211.897, 2498.999 1208.426, 2498.997 1201.809 C 2498.991 1184.904, 2495.950 1142.471, 2492.453 1110.500 C 2472.420 927.347, 2410.058 747.610, 2311.686 589.500 C 2266.424 516.751, 2214.075 449.469, 2154.131 387 C 2049.696 278.166, 1937.402 195.389, 1805.500 130.010 C 1654.683 55.256, 1502.861 14.427, 1331.055 2.419 C 1311.071 1.023, 1223.725 -0.247, 1205 0.587 M 1195 180.088 C 1046.630 187.634, 905.080 224.796, 772 291.143 C 687.752 333.145, 615.565 381.676, 543 445.099 C 511.873 472.305, 458.772 526.498, 430.414 560 C 295.344 719.575, 208.958 919.803, 185.576 1127.500 C 176.722 1206.143, 176.722 1293.857, 185.576 1372.500 C 210.952 1597.906, 310.138 1813.223, 464.743 1978.527 C 481.043 1995.955, 518.063 2032.576, 532.500 2045.555 C 636.238 2138.812, 751.650 2208.400, 882.107 2256.353 C 971.405 2289.176, 1063.797 2309.536, 1159.500 2317.478 C 1229.558 2323.292, 1307.336 2322.015, 1376.500 2313.914 C 1601.631 2287.545, 1815.608 2188.292, 1979.688 2034.127 C 2074.788 1944.773, 2146.400 1850.105, 2204.071 1737.500 C 2281.775 1585.782, 2321 1422.244, 2321 1250 C 2321 1079.180, 2282.980 918.959, 2206.503 767.500 C 2166.646 688.565, 2122.590 622.215, 2066.068 556 C 2023.161 505.735, 1969.460 453.645, 1918 412.372 C 1838.282 348.436, 1746.099 294.607, 1650.500 256.170 C 1537.479 210.728, 1424.955 186.132, 1302.103 180.016 C 1278.976 178.864, 1218.253 178.905, 1195 180.088 M 1236.500 715.039 C 1203.140 720.240, 1175.307 744.137, 1164.337 777 L 1161.500 785.500 1161.235 1022.500 C 1161.009 1223.815, 1161.183 1260.634, 1162.389 1267.034 C 1165.205 1281.977, 1172.138 1296.182, 1182.882 1309.018 C 1185.422 1312.052, 1289.397 1433.274, 1413.938 1578.399 C 1573.765 1764.643, 1642.453 1843.989, 1647.438 1848.131 C 1656.110 1855.337, 1669.694 1862.237, 1681 1865.177 C 1687.968 1866.989, 1692.204 1867.384, 1704.500 1867.366 C 1717.884 1867.347, 1720.449 1867.055, 1728.307 1864.660 C 1747.179 1858.908, 1763.411 1847.615, 1775.211 1832.027 C 1797.203 1802.977, 1798.824 1760.930, 1779.108 1730.975 C 1776.402 1726.864, 1676.279 1609.425, 1556.612 1470 L 1339.037 1216.500 1339.018 1004.838 C 1338.999 777.583, 1339.206 787.297, 1334.054 772.561 C 1329.903 760.689, 1321.950 748.986, 1310.867 738.443 C 1299.521 727.648, 1287.184 720.747, 1272.500 716.979 C 1263.249 714.605, 1245.440 713.646, 1236.500 715.039 M 0.455 1250.500 C 0.455 1271.950, 0.587 1280.583, 0.749 1269.684 C 0.911 1258.785, 0.910 1241.235, 0.748 1230.684 C 0.587 1220.133, 0.454 1229.050, 0.455 1250.500" stroke="none" fill="#000000" fill-rule="evenodd"></path>
</svg>