<svg xmlns="http://www.w3.org/2000/svg" width="48" height="48" viewBox="0 0 2500 2500" version="1.1">
	<path d="M 1205 0.587 C 1156.563 2.744, 1119.741 5.932, 1078 11.582 C 907.089 34.717, 738.119 95.847, 589.500 188.314 C 471.607 261.664, 364.013 357.147, 274.902 467.500 C 183.507 580.681, 110.839 713.805, 64.018 853.828 C 32.522 948.018, 13.095 1041.993, 4.547 1141.500 C 1.148 1181.066, 0.528 1197.765, 0.519 1250 C 0.508 1309.430, 1.992 1338.892, 7.542 1389.500 C 27.656 1572.887, 89.934 1752.378, 188.314 1910.500 C 272.288 2045.469, 384.980 2166.549, 515 2261.503 C 615.897 2335.188, 732.635 2395.317, 853.500 2435.854 C 947.420 2467.354, 1041.825 2486.891, 1141.500 2495.453 C 1181.208 2498.865, 1197.719 2499.477, 1250 2499.477 C 1309.506 2499.477, 1339.061 2497.990, 1389.500 2492.458 C 1572.887 2472.344, 1752.378 2410.066, 1910.500 2311.686 C 1971.292 2273.863, 2027.771 2231.356, 2086 2179.602 C 2103.445 2164.097, 2164.097 2103.445, 2179.602 2086 C 2259.602 1995.991, 2318.801 1908.773, 2369.990 1805.500 C 2439.600 1665.061, 2480.846 1519.455, 2495.026 1364.089 C 2496.884 1343.737, 2498.993 1308.758, 2498.997 1298.250 C 2498.999 1292.086, 2499.399 1288, 2500 1288 C 2500.649 1288, 2501 1274.480, 2501 1249.441 C 2501 1223.990, 2500.660 1211.092, 2500 1211.500 C 2499.358 1211.897, 2498.999 1208.426, 2498.997 1201.809 C 2498.991 1184.904, 2495.950 1142.471, 2492.453 1110.500 C 2472.420 927.347, 2410.058 747.610, 2311.686 589.500 C 2266.424 516.751, 2214.075 449.469, 2154.131 387 C 2049.696 278.166, 1937.402 195.389, 1805.500 130.010 C 1654.683 55.256, 1502.861 14.427, 1331.055 2.419 C 1311.071 1.023, 1223.725 -0.247, 1205 0.587 M 1195 180.088 C 1046.630 187.634, 905.080 224.796, 772 291.143 C 687.752 333.145, 615.565 381.676, 543 445.099 C 511.873 472.305, 458.772 526.498, 430.414 560 C 295.344 719.575, 208.958 919.803, 185.576 1127.500 C 176.722 1206.143, 176.722 1293.857, 185.576 1372.500 C 210.952 1597.906, 310.138 1813.223, 464.743 1978.527 C 481.043 1995.955, 518.063 2032.576, 532.500 2045.555 C 636.238 2138.812, 751.650 2208.400, 882.107 2256.353 C 971.405 2289.176, 1063.797 2309.536, 1159.500 2317.478 C 1229.558 2323.292, 1307.336 2322.015, 1376.500 2313.914 C 1601.631 2287.545, 1815.608 2188.292, 1979.688 2034.127 C 2074.788 1944.773, 2146.400 1850.105, 2204.071 1737.500 C 2281.775 1585.782, 2321 1422.244, 2321 1250 C 2321 1079.180, 2282.980 918.959, 2206.503 767.500 C 2166.646 688.565, 2122.590 622.215, 2066.068 556 C 2023.161 505.735, 1969.460 453.645, 1918 412.372 C 1838.282 348.436, 1746.099 294.607, 1650.500 256.170 C 1537.479 210.728, 1424.955 186.132, 1302.103 180.016 C 1278.976 178.864, 1218.253 178.905, 1195 180.088 M 968.500 715.043 C 933.819 720.424, 905.197 746.230, 895.342 781.002 C 893.565 787.271, 893.500 803.755, 893.500 1249 L 893.500 1710.500 895.756 1718.964 C 900.230 1735.752, 908.566 1749.612, 921.515 1761.797 C 933.497 1773.071, 943.359 1778.450, 960.758 1783.199 C 966.919 1784.881, 971.359 1785.312, 982.500 1785.312 C 999.162 1785.312, 1007.781 1783.379, 1021 1776.674 C 1029.559 1772.333, 1737.141 1330.526, 1748.700 1322.305 C 1757.174 1316.278, 1767.524 1304.899, 1773.345 1295.206 C 1785.477 1275.008, 1788.804 1251.957, 1783.021 1228.182 C 1778.026 1207.649, 1764.911 1188.460, 1748.091 1177.074 C 1732.373 1166.435, 1028.283 726.964, 1021.176 723.357 C 1016.598 721.033, 1008.948 718.220, 1004.176 717.105 C 993.945 714.714, 976.952 713.732, 968.500 715.043 M 1072 1250 L 1072 1534.877 1299.500 1392.689 C 1424.625 1314.485, 1527 1250.275, 1527 1250 C 1527 1249.725, 1424.625 1185.515, 1299.500 1107.311 L 1072 965.123 1072 1250 M 0.455 1250.500 C 0.455 1271.950, 0.587 1280.583, 0.749 1269.684 C 0.911 1258.785, 0.910 1241.235, 0.748 1230.684 C 0.587 1220.133, 0.454 1229.050, 0.455 1250.500" stroke="none" fill="#000000" fill-rule="evenodd"></path>
</svg>