<svg xmlns="http://www.w3.org/2000/svg" width="48" height="48" viewBox="0 0 2500 2500" version="1.1">
	<path d="M 425.500 0.646 C 423.850 0.840, 418.225 1.478, 413 2.064 C 390.878 4.543, 365.389 11.306, 343.316 20.554 C 264.803 53.448, 206.157 121.931, 186.123 204.113 C 182.135 220.473, 180.071 235.014, 178.974 254.500 C 177.776 275.763, 177.776 2224.237, 178.974 2245.500 C 180.071 2264.986, 182.135 2279.527, 186.123 2295.887 C 206.141 2378.006, 264.812 2446.556, 343.179 2479.389 C 364.287 2488.232, 385.454 2494.074, 409.500 2497.694 C 420.997 2499.424, 456.211 2499.500, 1250 2499.500 C 2043.789 2499.500, 2079.003 2499.424, 2090.500 2497.694 C 2114.546 2494.074, 2135.713 2488.232, 2156.821 2479.389 C 2235.170 2446.563, 2293.870 2377.979, 2313.876 2295.887 C 2318.108 2278.523, 2319.873 2265.530, 2321.058 2243 C 2321.745 2229.953, 2321.981 2016.164, 2321.771 1597 C 2321.477 1011.196, 2321.346 970.054, 2319.756 963.631 C 2316.160 949.109, 2310.305 936.902, 2301.947 926.500 C 2299.296 923.200, 2094.261 717.701, 1846.313 469.835 C 1484.479 108.120, 1394.118 18.291, 1388.500 14.716 C 1380.683 9.742, 1370.526 5.090, 1361.500 2.349 C 1355.735 0.599, 1337.343 0.523, 892 0.410 C 637.075 0.345, 427.150 0.451, 425.500 0.646 M 433.500 179.626 C 432.400 179.842, 429.025 180.512, 426 181.113 C 412.915 183.713, 396.537 192.545, 385.715 202.837 C 371.324 216.521, 362.801 231.797, 358.841 251 C 356.841 260.696, 356.841 2239.304, 358.841 2249 C 362.801 2268.203, 371.324 2283.479, 385.715 2297.163 C 396.292 2307.222, 411.515 2315.523, 426 2319.130 C 434.237 2321.182, 2065.763 2321.182, 2074 2319.130 C 2088.485 2315.523, 2103.708 2307.222, 2114.285 2297.163 C 2127.911 2284.206, 2135.440 2271.333, 2140.699 2252 C 2142.379 2245.822, 2142.481 2215.113, 2142.742 1632.508 L 2143.016 1019.517 1722.758 599.258 L 1302.501 179 869 179.116 C 630.575 179.180, 434.600 179.409, 433.500 179.626 M 789.661 715.122 C 756.733 719.401, 725.858 747.141, 716.892 780.500 C 713.781 792.073, 713.771 815.090, 716.872 826.500 C 725.008 856.440, 748.219 880.240, 778.500 889.691 L 787.500 892.500 981 892.500 C 1166.772 892.500, 1174.800 892.425, 1182 890.627 C 1198.059 886.618, 1213.268 877.694, 1225.061 865.362 C 1235.887 854.041, 1243.073 841.701, 1247.232 827.291 C 1249.158 820.620, 1249.475 817.200, 1249.437 803.500 C 1249.387 785.259, 1248.274 779.716, 1241.932 766.141 C 1230.693 742.082, 1209.462 724.145, 1183.500 716.775 L 1175.500 714.504 986 714.368 C 880.349 714.293, 793.474 714.626, 789.661 715.122 M 787.870 1251.067 C 770.712 1253.600, 751.624 1264.095, 738.335 1278.301 C 727.716 1289.653, 720.815 1301.944, 716.887 1316.500 C 714.079 1326.905, 713.804 1348.713, 716.340 1359.848 C 723.244 1390.161, 748.730 1416.822, 779 1425.399 C 782.025 1426.257, 788.550 1427.414, 793.500 1427.971 C 805.861 1429.362, 1694.005 1429.373, 1706.500 1427.982 C 1727.456 1425.649, 1744.370 1417.469, 1759.480 1402.359 C 1771.992 1389.847, 1779.753 1376.041, 1783.650 1359.366 C 1786.275 1348.133, 1786.003 1327.458, 1783.085 1316.500 C 1775.022 1286.224, 1750.872 1261.858, 1719.500 1252.349 C 1713.740 1250.603, 1695.115 1250.524, 1253.500 1250.383 C 1000.500 1250.302, 790.966 1250.609, 787.870 1251.067 M 783.980 1787.566 C 768.689 1790.855, 754.755 1798.393, 742.722 1809.885 C 729.402 1822.606, 721.366 1835.854, 716.872 1852.500 C 715.126 1858.967, 714.712 1863.278, 714.712 1875 C 714.712 1886.722, 715.126 1891.033, 716.872 1897.500 C 721.434 1914.398, 729.533 1927.622, 743.244 1940.562 C 755.968 1952.571, 771.260 1960.376, 787.099 1962.946 C 796.043 1964.398, 1703.957 1964.398, 1712.901 1962.946 C 1728.667 1960.388, 1743.766 1952.686, 1756.654 1940.628 C 1770.351 1927.813, 1778.550 1914.457, 1783.128 1897.500 C 1784.874 1891.033, 1785.288 1886.722, 1785.288 1875 C 1785.288 1863.278, 1784.874 1858.967, 1783.128 1852.500 C 1778.566 1835.602, 1770.467 1822.378, 1756.756 1809.438 C 1744.032 1797.429, 1728.740 1789.624, 1712.901 1787.054 C 1708.537 1786.346, 1560.741 1786.039, 1248.500 1786.089 C 859.507 1786.152, 789.518 1786.374, 783.980 1787.566" stroke="none" fill="#000000" fill-rule="evenodd"></path>
</svg>