<svg xmlns="http://www.w3.org/2000/svg" width="48" height="48" viewBox="0 0 2500 2500" version="1.1">
	<path d="M 74.500 1.002 C 41.401 5.980, 12.969 31.792, 2.354 66.500 C 0.579 72.303, 0.510 110.972, 0.229 1246 C 0.023 2075.504, 0.252 2421.405, 1.007 2426 C 7.030 2462.612, 37.388 2492.970, 74 2498.993 C 78.594 2499.748, 424.539 2499.979, 1254 2499.781 L 2427.500 2499.500 2434.829 2497.225 C 2454.693 2491.057, 2473.607 2477.262, 2484.881 2460.718 C 2492.226 2449.940, 2499 2432.425, 2499 2424.211 C 2499 2422.246, 2499.410 2421.135, 2500 2421.500 C 2500.667 2421.912, 2500.917 2031.157, 2500.751 1249.809 L 2500.501 77.500 2500 1239 C 2499.724 1877.825, 2499.387 2399.088, 2499.249 2397.362 C 2498.768 2391.310, 2493.844 2376.429, 2489.888 2369.076 C 2477.497 2346.039, 2456.892 2330.051, 2431 2323.382 C 2425.461 2321.956, 2416.924 2321.643, 2373.250 2321.269 L 2322 2320.829 2321.991 1474.664 C 2321.986 913.463, 2321.643 624.659, 2320.973 617.093 C 2319.052 595.388, 2311.160 578.277, 2296 562.951 C 2282.213 549.012, 2268.202 541.149, 2250.792 537.580 C 2243.849 536.157, 2206.558 536, 1875 536 C 1543.442 536, 1506.151 536.157, 1499.208 537.580 C 1482.096 541.088, 1467.659 549.083, 1454.421 562.383 C 1439.058 577.818, 1430.955 595.316, 1429.013 617.248 C 1428.389 624.299, 1428.014 711.105, 1428.009 849.750 L 1428 1071 1160.508 1071 L 893.016 1071 892.758 572.250 L 892.500 73.500 889.691 64.500 C 879.531 31.947, 852.200 7.036, 820.619 1.544 C 812.712 0.169, 771.596 0.014, 445.619 0.125 C 244.254 0.193, 77.250 0.588, 74.500 1.002 M 0.498 1251 C 0.498 1895.875, 0.612 2159.687, 0.750 1837.250 C 0.888 1514.812, 0.888 987.187, 0.750 664.750 C 0.612 342.312, 0.498 606.125, 0.498 1251 M 179 1250 L 179 2321 446.500 2321 L 714 2321 714 1250 L 714 179 446.500 179 L 179 179 179 1250 M 1607.622 714.803 C 1607.347 715.247, 1607.393 1076.823, 1607.723 1518.305 L 1608.323 2321 1875.662 2321 L 2143.001 2321 2142.751 1517.750 L 2142.500 714.500 1875.310 714.248 C 1728.356 714.110, 1607.896 714.359, 1607.622 714.803 M 893 1785.500 L 893 2321 1160.500 2321 L 1428 2321 1428 1785.500 L 1428 1250 1160.500 1250 L 893 1250 893 1785.500" stroke="none" fill="#000000" fill-rule="evenodd"></path>
</svg>