<svg xmlns="http://www.w3.org/2000/svg" width="48" height="48" viewBox="0 0 2500 2500" version="1.1">
	<path d="M 1233.500 269.069 C 1220.945 271.162, 1208.095 276.983, 1196.379 285.885 C 1185.335 294.275, 21.792 1458.300, 15.752 1467 C 9.633 1475.814, 6.522 1482.253, 3.340 1492.693 C 0.925 1500.615, 0.648 1503.107, 0.587 1517.500 C 0.529 1531.170, 0.841 1534.615, 2.731 1541.157 C 5.822 1551.857, 9.093 1558.860, 14.967 1567.358 C 27.377 1585.310, 43.925 1597.673, 63.500 1603.617 C 71.683 1606.102, 73.998 1606.356, 89 1606.418 C 103.274 1606.477, 106.552 1606.182, 113.299 1604.233 C 121.755 1601.789, 130.349 1597.770, 139 1592.211 C 142.430 1590.007, 184.485 1548.757, 250.743 1482.607 L 356.985 1376.537 357.243 1901.518 L 357.500 2426.500 360.309 2435.500 C 370.469 2468.053, 397.800 2492.964, 429.381 2498.456 C 437.339 2499.840, 522.608 2500, 1250 2500 C 1977.392 2500, 2062.661 2499.840, 2070.619 2498.456 C 2085.891 2495.800, 2101.248 2488.096, 2113.165 2477.113 C 2126.018 2465.265, 2134.606 2451.794, 2139.691 2435.500 L 2142.500 2426.500 2143 1901.748 L 2143.500 1376.996 2247.500 1481.050 C 2304.700 1538.280, 2354.425 1587.278, 2358 1589.935 C 2366.372 1596.157, 2376.897 1601.400, 2386.709 1604.235 C 2393.447 1606.182, 2396.730 1606.477, 2411 1606.418 C 2426.002 1606.356, 2428.317 1606.102, 2436.500 1603.617 C 2467.091 1594.328, 2492.557 1566.705, 2498.046 1536.860 C 2498.689 1533.362, 2499.617 1529.719, 2500.108 1528.764 C 2501.370 1526.307, 2501.270 1505.715, 2500 1506.500 C 2499.420 1506.859, 2499 1505.881, 2499 1504.171 C 2499 1500.304, 2494.536 1484.986, 2491.863 1479.678 C 2484.603 1465.264, 2495.466 1476.258, 1896.107 876.685 C 1533.185 513.634, 1308.516 289.603, 1303.630 285.891 C 1291.585 276.740, 1281.478 272.143, 1267.541 269.477 C 1259.316 267.903, 1241.756 267.692, 1233.500 269.069 M 892.749 840.751 L 536 1197.501 536 1759.251 L 536 2321 848.487 2321 L 1160.975 2321 1161.239 2089.250 L 1161.502 1857.500 1163.776 1850.171 C 1172.939 1820.644, 1196.559 1797.162, 1225.500 1788.809 C 1232.414 1786.814, 1235.740 1786.500, 1250 1786.500 C 1269.382 1786.500, 1276.886 1788.168, 1291 1795.613 C 1312.378 1806.890, 1329.067 1826.979, 1336.180 1850 L 1338.498 1857.500 1338.761 2089.250 L 1339.025 2321 1651.513 2321 L 1964 2321 1964 1759.249 L 1964 1197.499 1607.249 840.749 C 1411.037 644.537, 1250.274 484, 1249.999 484 C 1249.724 484, 1088.962 644.538, 892.749 840.751 M 1226.500 893.572 C 1224.850 893.794, 1218.775 894.472, 1213 895.079 C 1198.726 896.580, 1175.224 901.361, 1161.134 905.631 C 1123.065 917.167, 1085.841 936.596, 1054.858 961.102 C 1041.386 971.758, 1014.690 998.663, 1004.356 1012 C 956.788 1073.391, 933.798 1146.216, 938.051 1222.032 C 939.066 1240.122, 939.295 1242.221, 942.078 1259 C 952.575 1322.272, 985.958 1385.258, 1032.755 1430.090 C 1110.956 1505.006, 1217.852 1533.996, 1324.102 1509.102 C 1385.579 1494.699, 1446.890 1456.855, 1487.900 1408 C 1533.435 1353.754, 1558.161 1291.674, 1561.904 1222.198 C 1566.033 1145.562, 1543.290 1073.424, 1495.640 1012.009 C 1485.239 998.604, 1458.532 971.677, 1445.142 961.095 C 1428.017 947.562, 1408.712 935.421, 1388.500 925.472 C 1355.392 909.175, 1327.613 900.590, 1291.268 895.420 C 1281.112 893.975, 1233.587 892.619, 1226.500 893.572 M 1233 1072.609 C 1213.426 1076.174, 1203.535 1079.202, 1191 1085.468 C 1172.946 1094.493, 1155.647 1108.691, 1144.055 1124 C 1116.622 1160.227, 1109.074 1206.411, 1123.646 1248.873 C 1131.830 1272.723, 1149.304 1296.838, 1169.500 1312.155 C 1209.141 1342.219, 1262.888 1347.352, 1308.500 1325.429 C 1334.582 1312.894, 1356.114 1291.621, 1369.344 1265.319 C 1383.708 1236.762, 1387.347 1203.337, 1379.474 1172.298 C 1367.154 1123.732, 1327.562 1085.577, 1278 1074.506 C 1270.731 1072.882, 1238.873 1071.539, 1233 1072.609 M 0.378 1518 C 0.378 1524.325, 0.541 1526.912, 0.739 1523.750 C 0.937 1520.588, 0.937 1515.412, 0.739 1512.250 C 0.541 1509.088, 0.378 1511.675, 0.378 1518" stroke="none" fill="#000000" fill-rule="evenodd"></path>
</svg>