<svg xmlns="http://www.w3.org/2000/svg" width="48" height="48" viewBox="0 0 2500 2500" version="1.1">
	<path d="M 73.342 224.478 C 55.761 227.672, 41.686 234.815, 28.301 247.335 C 16.139 258.712, 6.224 275.193, 2.269 290.608 C 0.583 297.176, 0.500 342.298, 0.500 1250 C 0.500 2160.747, 0.578 2202.807, 2.284 2209.500 C 3.265 2213.350, 6.037 2220.550, 8.445 2225.500 C 20.382 2250.046, 41.186 2267.354, 67.036 2274.244 L 75.500 2276.500 1250 2276.500 L 2424.500 2276.500 2432.964 2274.244 C 2465.711 2265.516, 2492.347 2237.720, 2497.954 2206.427 C 2498.636 2202.617, 2499.601 2198.719, 2500.097 2197.764 C 2501.396 2195.266, 2501.298 300.698, 2500 301.500 C 2499.426 301.854, 2498.985 300.920, 2498.964 299.309 C 2498.945 297.764, 2498.314 294.025, 2497.562 291 C 2489.779 259.677, 2465.375 234.829, 2433.500 225.773 L 2425.500 223.500 1253 223.339 C 294.528 223.207, 79.193 223.415, 73.342 224.478 M 0.498 1250 C 0.498 1771.675, 0.611 1985.087, 0.750 1724.250 C 0.889 1463.412, 0.889 1036.587, 0.750 775.750 C 0.611 514.912, 0.498 728.325, 0.498 1250 M 179.072 449.750 L 179.145 497.500 686.822 925.762 C 966.045 1161.306, 1196.750 1355.631, 1199.500 1357.595 C 1213.744 1367.771, 1230.674 1373, 1249.382 1373 C 1270.968 1373, 1286.805 1367.792, 1303.540 1355.189 C 1307.918 1351.891, 1538.525 1157.562, 1816 923.346 L 2320.500 497.498 2320.760 449.749 L 2321.019 402 1250.010 402 L 179 402 179.072 449.750 M 179 1415 L 179 2098 1250 2098 L 2321 2098 2321 1415 C 2321 1039.350, 2320.764 732, 2320.476 732 C 2320.187 732, 2119.825 900.883, 1875.226 1107.296 C 1630.627 1313.709, 1426.900 1485.618, 1422.500 1489.314 C 1384.201 1521.493, 1338.035 1542.045, 1286.749 1549.748 C 1272.413 1551.901, 1230.116 1552.149, 1216 1550.163 C 1166.853 1543.246, 1121.197 1524.098, 1084.699 1495.094 C 1080.702 1491.918, 875.517 1318.922, 628.733 1110.659 C 381.949 902.397, 179.802 732, 179.517 732 C 179.233 732, 179 1039.350, 179 1415" stroke="none" fill="#000000" fill-rule="evenodd"></path>
</svg>