<svg xmlns="http://www.w3.org/2000/svg" width="48" height="48" viewBox="0 0 2500 2500" version="1.1">
	<path d="M 1226 0.582 C 1224.075 0.801, 1217.550 1.475, 1211.500 2.080 C 1107.835 12.439, 1011.080 71.266, 952.584 159.500 C 920.483 207.920, 903.508 254.207, 894.823 317 C 892.787 331.718, 893.113 385.074, 895.336 401 C 900.528 438.199, 908.205 466.331, 921.932 498.461 C 948.887 561.549, 994.722 616.398, 1052.500 654.706 C 1094.431 682.506, 1143.250 701.849, 1190.500 709.382 C 1214.325 713.181, 1218.938 713.500, 1250 713.500 C 1281.062 713.500, 1285.675 713.181, 1309.500 709.382 C 1396.838 695.457, 1481.078 644.351, 1534.870 572.657 C 1569.641 526.314, 1592.791 473.019, 1601.886 418.376 C 1606.100 393.062, 1606.489 387.853, 1606.473 357 C 1606.457 326.267, 1606.029 320.516, 1601.912 295.772 C 1592.523 239.349, 1565.954 180.183, 1529.717 135 C 1470.787 61.524, 1389.509 15.569, 1296 2.856 C 1282.240 0.986, 1235.733 -0.525, 1226 0.582 M 1223 180.942 C 1152.352 191.759, 1094.521 244.313, 1077.090 313.538 C 1070.196 340.913, 1070.198 372.691, 1077.094 400.500 C 1092.717 463.504, 1142.859 513.879, 1205.993 529.998 C 1232.894 536.867, 1267.106 536.867, 1294.007 529.998 C 1351.519 515.314, 1398.609 472.121, 1418.292 416 C 1429.451 384.181, 1431.159 346.296, 1422.910 313.538 C 1405.230 243.324, 1346.133 190.471, 1274.216 180.556 C 1259.567 178.536, 1237.634 178.702, 1223 180.942 M 1218.813 894.052 C 1075.777 906.775, 954.451 1003.520, 910.124 1140.199 C 889.576 1203.558, 887.295 1272.063, 903.562 1337.301 C 928.953 1439.135, 1000.538 1526.705, 1095.500 1572.100 C 1170.828 1608.109, 1256.080 1616.690, 1337.301 1596.438 C 1422.028 1575.312, 1497.346 1522.227, 1546.489 1449 C 1576.613 1404.113, 1595.666 1354.914, 1603.417 1302 C 1609.158 1262.805, 1608.053 1218.407, 1600.380 1180 C 1582.109 1088.535, 1528.039 1007.142, 1450.573 954.489 C 1399.594 919.839, 1342.277 899.523, 1280 894.031 C 1266.954 892.881, 1231.844 892.892, 1218.813 894.052 M 1223.776 1073.589 C 1186.084 1079.475, 1151.708 1096.709, 1125.174 1123.022 C 1090.131 1157.772, 1072 1201.068, 1072 1250 C 1072 1298.387, 1089.954 1341.751, 1124.180 1376.033 C 1157.820 1409.728, 1202.060 1428, 1250 1428 C 1298.241 1428, 1341.892 1409.945, 1375.919 1375.919 C 1409.945 1341.892, 1428 1298.241, 1428 1250 C 1428 1201.705, 1409.982 1158.184, 1375.820 1123.967 C 1348.598 1096.701, 1313.994 1079.357, 1275.185 1073.528 C 1262.688 1071.651, 1235.987 1071.683, 1223.776 1073.589 M 1222 1786.595 C 1220.075 1786.813, 1214.225 1787.471, 1209 1788.058 C 1112.906 1798.854, 1023.014 1850.195, 965.130 1927.343 C 926.712 1978.547, 904.535 2033.091, 895.336 2099 C 893.113 2114.926, 892.787 2168.282, 894.823 2183 C 902.057 2235.305, 915.795 2277.912, 938.127 2317.308 C 990.150 2409.082, 1078.727 2473.300, 1181 2493.390 C 1205.798 2498.262, 1219.425 2499.460, 1250 2499.460 C 1280.575 2499.460, 1294.202 2498.262, 1319 2493.390 C 1412.254 2475.072, 1494.764 2419.848, 1547.430 2340.500 C 1579.116 2292.762, 1596.737 2244.689, 1605.160 2183 C 1606.928 2170.053, 1606.939 2115.755, 1605.176 2103 C 1599.569 2062.427, 1592.114 2034.442, 1578.289 2002.064 C 1551.127 1938.449, 1505.481 1883.736, 1447.500 1845.294 C 1411.332 1821.315, 1372.396 1804.536, 1330 1794.659 C 1320.208 1792.377, 1310.263 1790.619, 1292 1787.939 C 1284.710 1786.870, 1229.022 1785.800, 1222 1786.595 M 1238 1965.093 C 1194.245 1967.985, 1155.268 1985.732, 1124 2017 C 1090.020 2050.980, 1072 2094.469, 1072 2142.496 C 1072 2170.803, 1077.015 2193.437, 1089.067 2219.524 C 1105.336 2254.738, 1137.052 2286.623, 1172.500 2303.402 C 1241.778 2336.193, 1322.225 2322.539, 1375.882 2268.882 C 1409.965 2234.799, 1428 2191.238, 1428 2143 C 1428 2094.545, 1410.050 2051.050, 1376 2017 C 1339.094 1980.094, 1290.063 1961.652, 1238 1965.093" stroke="none" fill="#000000" fill-rule="evenodd"></path>
</svg>