<svg xmlns="http://www.w3.org/2000/svg" width="48" height="48" viewBox="0 0 2500 2500" version="1.1">
	<path d="M 425.500 0.649 C 423.850 0.842, 418.225 1.478, 413 2.064 C 390.878 4.543, 365.389 11.306, 343.316 20.554 C 264.803 53.448, 206.157 121.931, 186.123 204.113 C 182.135 220.473, 180.071 235.014, 178.974 254.500 C 178.454 263.736, 178.057 606.805, 178.036 1065.994 L 178 1861.489 90.034 2125.494 C 41.653 2270.697, 1.606 2392.425, 1.042 2396 C -0.401 2405.134, -0.245 2417.121, 1.439 2426.500 C 6.673 2455.657, 24.464 2478.790, 51.500 2491.590 C 65.833 2498.375, 71.107 2499.478, 89 2499.427 L 104.500 2499.384 458.753 2410.692 L 813.007 2322 1521.253 2321.964 C 1928.651 2321.943, 2236.296 2321.544, 2245.500 2321.026 C 2264.986 2319.929, 2279.527 2317.865, 2295.887 2313.877 C 2377.987 2293.863, 2446.563 2235.170, 2479.389 2156.821 C 2487.842 2136.643, 2493.206 2117.798, 2497.270 2094 L 2499.404 2081.500 2499.750 1169.500 C 2500.001 508.526, 2499.792 253.922, 2498.989 244.500 C 2493.641 181.699, 2466.406 123.291, 2421.557 78.443 C 2377.032 33.917, 2319.294 6.835, 2256.500 1.020 C 2246.360 0.081, 433.522 -0.286, 425.500 0.649 M 433.500 179.624 C 432.400 179.842, 429.025 180.512, 426 181.113 C 412.915 183.713, 396.537 192.545, 385.715 202.837 C 372.089 215.794, 364.560 228.668, 359.301 248 C 357.619 254.184, 357.508 294.312, 357.017 1073 L 356.500 1891.500 354.284 1898.500 C 353.065 1902.350, 323.712 1990.522, 289.054 2094.437 C 254.396 2198.352, 226.196 2283.529, 226.386 2283.719 C 226.576 2283.909, 352.905 2252.438, 507.116 2213.782 L 787.500 2143.500 1516.500 2142.983 C 2209.492 2142.491, 2245.821 2142.378, 2252 2140.698 C 2271.328 2135.442, 2284.205 2127.911, 2297.163 2114.285 C 2307.222 2103.708, 2315.523 2088.485, 2319.130 2074 C 2320.285 2069.364, 2320.500 1925.774, 2320.500 1160 L 2320.500 251.500 2317.684 242.500 C 2308.607 213.487, 2286.513 191.393, 2257.500 182.316 L 2248.500 179.500 1342 179.364 C 843.425 179.290, 434.600 179.407, 433.500 179.624 M 746 982.575 C 729.258 984.490, 723.238 985.467, 715 987.605 C 652.080 1003.934, 603.247 1052.085, 586.430 1114.380 C 578.781 1142.713, 578.669 1178.056, 586.140 1205.961 C 601.100 1261.838, 641.798 1307.197, 695.285 1327.609 C 728.418 1340.253, 767.848 1342.577, 802.462 1333.925 C 859.262 1319.729, 906.747 1276.998, 926.567 1222.246 C 934.191 1201.183, 937.138 1184.107, 937.135 1161 C 937.132 1132.435, 932.699 1111.729, 921.185 1086.500 C 896.543 1032.508, 845.143 993.232, 787.584 984.410 C 778.343 982.994, 752.362 981.847, 746 982.575 M 1325.500 982.594 C 1295.683 985.606, 1269.261 994.070, 1247.166 1007.688 C 1192.739 1041.232, 1161.001 1097.428, 1161 1160.257 C 1161 1209.189, 1178.889 1252.653, 1213.118 1286.882 C 1247.360 1321.124, 1290.900 1339.038, 1339.743 1338.982 C 1369.438 1338.948, 1395.473 1332.690, 1420.775 1319.506 C 1472.587 1292.508, 1506.920 1244.609, 1516.112 1186.500 C 1517.780 1175.956, 1517.779 1145.738, 1516.111 1135 C 1510.039 1095.914, 1492.984 1062.113, 1465.436 1034.564 C 1438.514 1007.642, 1405.454 990.627, 1368 984.417 C 1359.397 982.990, 1332.850 981.852, 1325.500 982.594 M 1906 982.567 C 1893.274 983.996, 1884.283 985.492, 1876 987.560 C 1812.903 1003.312, 1762.351 1053.800, 1746.577 1116.817 C 1742.551 1132.900, 1741.577 1141.543, 1741.598 1161 C 1741.619 1181.854, 1743.154 1193.499, 1748.071 1210.121 C 1762.586 1259.191, 1795.034 1297.889, 1841.074 1321.037 C 1882.810 1342.021, 1935.481 1344.965, 1980 1328.800 C 2004.895 1319.761, 2027.252 1305.527, 2045.849 1286.876 C 2090.648 1241.946, 2108.158 1177.769, 2092.485 1115.941 C 2084.648 1085.025, 2069.054 1057.945, 2045.554 1034.446 C 2018.546 1007.437, 1985.859 990.665, 1948 984.389 C 1939.532 982.985, 1912.657 981.819, 1906 982.567" stroke="none" fill="#000000" fill-rule="evenodd"></path>
</svg>