<svg xmlns="http://www.w3.org/2000/svg" width="48" height="48" viewBox="0 0 2500 2500" version="1.1">
	<path d="M 1117.500 0.596 C 1073.190 2.781, 1049.134 4.753, 1014 9.084 C 872.086 26.575, 729.843 72.785, 601.500 143.092 C 470.479 214.865, 350.424 315.866, 254.563 434.968 C 121.635 600.121, 34.871 804.778, 9.084 1014 C 2.255 1069.403, 0.549 1098.649, 0.538 1160.500 C 0.529 1211.386, 1.084 1225.875, 4.562 1265.500 C 25.341 1502.268, 120.525 1729.549, 274.893 1911 C 315.115 1958.279, 366.830 2009.795, 414 2049.572 C 492.737 2115.968, 583.432 2173.531, 675.500 2215.540 C 813.237 2278.387, 950.312 2312.014, 1101.500 2320.046 C 1127.299 2321.417, 1193.671 2321.405, 1220 2320.025 C 1280.001 2316.881, 1334.151 2310.170, 1390.500 2298.897 C 1576.770 2261.630, 1756.638 2175.592, 1901.589 2054.423 C 1908.238 2048.864, 1914.252 2043.962, 1914.953 2043.529 C 1915.826 2042.989, 1985.236 2111.699, 2135.863 2262.212 C 2276.742 2402.984, 2357.472 2482.948, 2361 2485.212 C 2369.526 2490.684, 2376.114 2493.740, 2385.693 2496.666 C 2393.646 2499.096, 2396.051 2499.360, 2410.500 2499.399 C 2424.139 2499.435, 2427.651 2499.112, 2434.298 2497.210 C 2449.764 2492.786, 2463.589 2484.358, 2475.061 2472.362 C 2486.069 2460.850, 2493.044 2448.864, 2497.210 2434.298 C 2499.112 2427.651, 2499.435 2424.139, 2499.399 2410.500 C 2499.360 2396.051, 2499.096 2393.646, 2496.666 2385.693 C 2493.740 2376.114, 2490.684 2369.526, 2485.212 2361 C 2482.948 2357.472, 2402.984 2276.742, 2262.212 2135.863 C 2111.699 1985.236, 2042.989 1915.826, 2043.529 1914.953 C 2043.962 1914.252, 2048.864 1908.238, 2054.423 1901.589 C 2144.137 1794.267, 2214.582 1668.184, 2260.615 1532.546 C 2295.068 1431.030, 2314.269 1330.013, 2320.023 1220 C 2321.398 1193.705, 2321.409 1127.332, 2320.042 1101.500 C 2316.492 1034.415, 2308.151 971.892, 2294.497 910 C 2254.335 727.961, 2169.568 556.298, 2049.572 414 C 2009.795 366.830, 1958.279 315.115, 1911 274.893 C 1753.305 140.735, 1559.107 50.257, 1355.500 16.083 C 1315.538 9.376, 1284.032 5.691, 1238.578 2.408 C 1218.985 0.993, 1134.962 -0.265, 1117.500 0.596 M 1107 180.116 C 930.393 189.473, 757.418 247.602, 611 346.799 C 538.439 395.958, 472.297 455.108, 413.930 523.035 C 308.290 645.980, 233.940 796.518, 199.977 956.228 C 176.699 1065.695, 172.573 1183.790, 188.070 1297 C 202.159 1399.920, 233.069 1499.994, 280.576 1596.500 C 339.486 1716.169, 424.142 1823.881, 529 1912.580 C 612.094 1982.870, 709.916 2040.266, 813.500 2079.508 C 991.050 2146.772, 1187.199 2160.727, 1374.500 2119.421 C 1490.636 2093.809, 1605.769 2044.532, 1706.047 1977.518 C 1761.822 1940.244, 1802.881 1906.254, 1854.568 1854.568 C 1895.456 1813.679, 1916.699 1789.413, 1947.816 1748.047 C 2011.433 1663.478, 2064.005 1561.377, 2096.389 1459.500 C 2143.652 1310.815, 2154.936 1153.502, 2129.419 999 C 2105.154 852.068, 2045.406 708.160, 1958.967 588.445 C 1926.542 543.537, 1896.326 508.235, 1854.548 466.446 C 1817.115 429.004, 1788.279 403.864, 1748.500 373.993 C 1601.975 263.963, 1425.710 197.152, 1242 182.011 C 1205.888 179.035, 1143.850 178.164, 1107 180.116 M 1144 358.477 C 1122.877 362.530, 1104.575 373.709, 1090.728 391.016 C 1079.902 404.546, 1073.970 418.967, 1072.018 436.500 C 1071.423 441.844, 1071.013 482.307, 1071.008 536.096 L 1071 626.693 1059.250 627.335 C 961.965 632.653, 889.985 666.226, 848.785 725.500 C 820.938 765.564, 806.572 813.224, 804.156 873.553 C 802.777 907.993, 805.019 932.964, 811.961 960.500 C 830.669 1034.698, 880.890 1098.148, 965.785 1154.841 C 1003.808 1180.234, 1046.760 1203.906, 1133 1246.997 C 1193.879 1277.417, 1226.149 1295.276, 1255 1314.516 C 1276.028 1328.539, 1286.372 1336.605, 1299.859 1349.496 C 1328.215 1376.602, 1338.995 1399.403, 1338.999 1432.289 C 1339.002 1463.848, 1333.025 1487.192, 1322.442 1496.946 C 1311.401 1507.124, 1286.179 1513.430, 1246.500 1515.932 C 1219.229 1517.651, 1157.317 1518.258, 1133.500 1517.040 C 1069.149 1513.747, 1024.592 1501.256, 1001.744 1480.102 C 994.063 1472.991, 990.433 1467.583, 987.031 1458.182 C 983.986 1449.769, 983.452 1446.300, 982.001 1425.500 C 980.899 1409.718, 978.635 1400.253, 973.453 1389.768 C 961.844 1366.277, 940.519 1348.656, 915.500 1341.879 C 904.060 1338.780, 881.964 1338.777, 870.500 1341.872 C 838.043 1350.635, 812.184 1377.538, 805.494 1409.500 C 803.562 1418.729, 803.322 1442.349, 804.995 1458.500 C 808.289 1490.294, 816.688 1519.481, 830.069 1545.635 C 841.222 1567.434, 853.056 1583.892, 870.496 1601.858 C 914.766 1647.461, 975.072 1675.593, 1057.342 1689.016 C 1064.029 1690.107, 1069.817 1691, 1070.205 1691 C 1070.592 1691, 1071.064 1735.437, 1071.253 1789.750 C 1071.594 1887.493, 1071.619 1888.584, 1073.778 1896.726 C 1077.979 1912.576, 1084.657 1924.390, 1096.432 1936.806 C 1109.044 1950.105, 1124.951 1958.908, 1142.957 1962.553 C 1153.261 1964.639, 1175.052 1964.071, 1184.500 1961.469 C 1213.181 1953.573, 1237.623 1929.610, 1246.687 1900.500 L 1249.489 1891.500 1249.777 1793.250 C 1249.936 1739.212, 1250.388 1694.998, 1250.783 1694.996 C 1255.662 1694.968, 1282.791 1692.470, 1294.101 1691.007 C 1383.108 1679.494, 1442.419 1645.380, 1480.629 1583.720 C 1497.655 1556.246, 1509.375 1521.089, 1514.454 1482.258 C 1522.142 1423.480, 1517.145 1374.257, 1498.822 1328.265 C 1469.639 1255.017, 1407.952 1193.605, 1305 1135.307 C 1281.495 1121.998, 1269.442 1115.682, 1208.500 1084.740 C 1142.060 1051.007, 1122.836 1040.945, 1101.500 1028.735 C 1067.550 1009.306, 1040.901 990.361, 1021.728 972.023 C 990.075 941.749, 979.767 916.158, 982.891 875.605 C 985.945 835.957, 993.662 822.313, 1017.418 814.558 C 1039.867 807.230, 1063.299 805.029, 1126.578 804.302 C 1177.353 803.719, 1189.915 804.193, 1213.500 807.579 C 1266.806 815.232, 1312.276 836.909, 1329.322 862.797 C 1336.069 873.042, 1338.029 879.427, 1339.113 894.686 C 1340.992 921.148, 1347.766 937.233, 1364.432 954.806 C 1375.508 966.485, 1390.097 975.240, 1405.500 979.451 C 1413.646 981.678, 1433.602 982.546, 1443 981.083 C 1460.418 978.370, 1476.340 970.370, 1489.833 957.553 C 1512.552 935.972, 1520.644 910.864, 1517.083 873 C 1511.669 815.435, 1488.998 767.847, 1447.046 725.985 C 1431.730 710.701, 1419.983 701.194, 1401 688.719 C 1363.218 663.889, 1316.076 645.271, 1265 635.006 C 1259.225 633.845, 1253.487 632.686, 1252.250 632.429 L 1250 631.962 1250 535.112 C 1250 427.631, 1250.001 427.658, 1243.536 412.681 C 1238.726 401.539, 1234.422 394.766, 1227.113 386.835 C 1215.112 373.816, 1201.375 365.121, 1185.500 360.496 C 1174.127 357.183, 1155.474 356.276, 1144 358.477" stroke="none" fill="#000000" fill-rule="evenodd"></path>
</svg>