<svg xmlns="http://www.w3.org/2000/svg" width="48" height="48" viewBox="0 0 2500 2500" version="1.1">
	<path d="M 1212.500 0.599 C 1209.200 0.798, 1199.300 1.433, 1190.500 2.012 C 951.332 17.749, 727.466 136.161, 577.851 326.067 C 477.173 453.858, 415.007 607.423, 399.027 767.805 C 395.905 799.133, 395.085 817.325, 394.487 868.500 C 393.490 953.901, 391.415 1009.600, 386.960 1070.500 C 369.117 1314.453, 318.602 1510.362, 239.728 1641.500 C 216.197 1680.624, 198.126 1704.154, 170.607 1731.500 C 136.250 1765.642, 106.588 1783.869, 81.835 1786.050 C 68.942 1787.185, 61.299 1789.245, 50.500 1794.494 C 29.390 1804.755, 11.149 1825.265, 4.503 1846.214 C -7.338 1883.537, 4.074 1921.330, 34.500 1945.557 C 42.430 1951.872, 56.360 1959.006, 66 1961.690 C 72.255 1963.432, 116.796 1963.500, 1250 1963.500 C 2390.095 1963.500, 2427.706 1963.442, 2434 1961.661 C 2457.563 1954.995, 2478.242 1938.237, 2490.346 1916 C 2494.070 1909.160, 2499 1893.746, 2499 1888.947 C 2499 1887.391, 2499.450 1885.840, 2500 1885.500 C 2500.569 1885.149, 2501 1880.137, 2501 1873.882 C 2501 1866.803, 2500.644 1863.102, 2500 1863.500 C 2499.420 1863.859, 2499 1862.881, 2499 1861.171 C 2499 1856.269, 2494.109 1840.913, 2490.346 1834 C 2477.375 1810.168, 2454.549 1792.672, 2429.792 1787.584 C 2425.553 1786.713, 2419.897 1786, 2417.224 1786 C 2402.319 1786, 2374.821 1771.207, 2348 1748.760 C 2285.171 1696.179, 2228.557 1601.103, 2187.964 1480 C 2149.871 1366.353, 2124.517 1227.790, 2113.036 1070.500 C 2108.580 1009.463, 2106.510 954.026, 2105.512 869 C 2104.928 819.319, 2104.152 800.892, 2101.425 772 C 2092.726 679.825, 2068.238 588.094, 2029.462 502.436 C 1930.900 284.709, 1743.983 116.853, 1517.500 42.681 C 1447.997 19.919, 1388.873 8.230, 1311.500 1.953 C 1298.703 0.915, 1224.211 -0.104, 1212.500 0.599 M 1200 180.602 C 1064.596 190.975, 937.486 240.276, 832 323.336 C 791.870 354.935, 750.227 396.615, 717.572 437.865 C 643.269 531.726, 593.918 649.564, 578.890 769 C 575.059 799.453, 573.999 821.558, 573.014 891.500 C 572.480 929.450, 571.803 964.775, 571.510 970 C 571.216 975.225, 570.520 990.300, 569.963 1003.500 C 565.733 1103.684, 555.666 1203.749, 540.890 1292.500 C 507.452 1493.325, 450.326 1652.210, 368.550 1771.825 L 358.859 1786 1249.988 1786 C 1962.609 1786, 2140.974 1785.750, 2140.398 1784.750 C 2140.002 1784.063, 2135.992 1778.100, 2131.487 1771.500 C 2025.019 1615.526, 1959.580 1391.364, 1936.040 1102 C 1930.722 1036.633, 1928.250 978.716, 1926.989 890 C 1926.014 821.373, 1925.011 800.968, 1921.045 769 C 1906.291 650.076, 1856.767 531.771, 1782.428 437.865 C 1749.824 396.679, 1708.067 354.886, 1668 323.336 C 1571.871 247.644, 1456 199.255, 1334.500 184.064 C 1294.256 179.033, 1239.043 177.612, 1200 180.602 M 0.378 1875 C 0.378 1881.325, 0.541 1883.912, 0.739 1880.750 C 0.937 1877.588, 0.937 1872.412, 0.739 1869.250 C 0.541 1866.088, 0.378 1868.675, 0.378 1875 M 971.874 2112.982 C 926.557 2118.648, 892.938 2156.149, 893.022 2200.940 C 893.046 2214.002, 894.660 2222.534, 900.789 2242 C 937.430 2358.374, 1030.614 2449.645, 1147.261 2483.413 C 1215.145 2503.065, 1284.855 2503.065, 1352.739 2483.413 C 1469.386 2449.645, 1562.570 2358.374, 1599.211 2242 C 1605.340 2222.534, 1606.954 2214.002, 1606.978 2200.940 C 1607.054 2160.651, 1579.741 2125.643, 1540.182 2115.325 C 1532.253 2113.257, 1528.146 2112.797, 1517.500 2112.785 C 1502.183 2112.768, 1493.286 2114.732, 1480.072 2121.050 C 1455.344 2132.871, 1440.523 2150.223, 1432.060 2177.262 C 1419.121 2218.599, 1407.494 2238.705, 1381.582 2264.548 C 1351.123 2294.927, 1315.841 2312.232, 1272.678 2317.962 C 1262.592 2319.300, 1237.370 2319.297, 1227.322 2317.956 C 1195.272 2313.676, 1166.597 2302.452, 1140.500 2283.970 C 1129.715 2276.332, 1107.466 2254.435, 1099.888 2244 C 1085.245 2223.837, 1077.397 2207.822, 1069.595 2182.177 C 1067.556 2175.478, 1064.760 2167.444, 1063.380 2164.324 C 1050.561 2135.339, 1019.977 2114.534, 987.442 2112.667 C 982.524 2112.385, 975.518 2112.527, 971.874 2112.982" stroke="none" fill="#000000" fill-rule="evenodd"></path>
</svg>