<svg xmlns="http://www.w3.org/2000/svg" width="48" height="48" viewBox="0 0 2500 2500" version="1.1">
	<path d="M 1234.393 1.088 C 1202.092 6.491, 1173.011 32.617, 1163.809 64.500 L 1161.500 72.500 1161.500 401.500 C 1161.500 667.427, 1161.748 731.459, 1162.794 735.500 C 1169.550 761.605, 1188.719 784.597, 1213.245 796.012 C 1234.743 806.017, 1265.257 806.017, 1286.755 796.012 C 1313.130 783.736, 1333.915 757.056, 1338.022 730.202 C 1338.710 725.700, 1338.957 616.495, 1338.773 397.500 L 1338.500 71.500 1336.185 64.027 C 1326.128 31.567, 1297.547 6.352, 1264.786 1.035 C 1257.425 -0.159, 1241.686 -0.132, 1234.393 1.088 M 608.512 269.004 C 576.541 274.760, 548.001 300.778, 538.800 332.557 L 536.500 340.500 536.500 535.500 C 536.500 691.795, 536.757 731.492, 537.794 735.500 C 544.550 761.605, 563.719 784.597, 588.245 796.012 C 609.743 806.017, 640.257 806.017, 661.755 796.012 C 688.129 783.737, 708.903 757.071, 713.025 730.202 C 713.710 725.738, 713.959 659.398, 713.773 531.500 L 713.492 339.500 711.183 332 C 706.165 315.701, 695.628 299.942, 682 288.355 C 673.766 281.354, 658.374 273.141, 648.500 270.479 C 641.459 268.580, 616.067 267.644, 608.512 269.004 M 1858.512 269.004 C 1826.541 274.760, 1798.001 300.778, 1788.800 332.557 L 1786.500 340.500 1786.500 535.500 C 1786.500 691.795, 1786.757 731.492, 1787.794 735.500 C 1794.550 761.605, 1813.719 784.597, 1838.245 796.012 C 1859.743 806.017, 1890.257 806.017, 1911.755 796.012 C 1938.129 783.737, 1958.903 757.071, 1963.025 730.202 C 1963.710 725.738, 1963.959 659.398, 1963.773 531.500 L 1963.492 339.500 1961.183 332 C 1956.165 315.701, 1945.628 299.942, 1932 288.355 C 1923.766 281.354, 1908.374 273.141, 1898.500 270.479 C 1891.459 268.580, 1866.067 267.644, 1858.512 269.004 M 247.757 1072.084 C 164.611 1077.711, 86.598 1124.752, 40.592 1197 C 37.965 1201.125, 32.043 1212.150, 27.431 1221.500 C 15.130 1246.443, 7.552 1270.442, 2.329 1301 C 0.623 1310.978, 0.518 1334.641, 0.216 1777 C -0.012 2111.977, 0.210 2246.145, 1.008 2255.500 C 6.371 2318.327, 33.595 2376.710, 78.443 2421.557 C 122.968 2466.083, 180.706 2493.165, 243.500 2498.980 C 258.800 2500.396, 2241.200 2500.396, 2256.500 2498.980 C 2376.219 2487.894, 2473.682 2399.044, 2495.557 2281.046 C 2496.928 2273.646, 2498.333 2263.618, 2498.678 2258.761 C 2499.022 2253.904, 2499.686 2249.694, 2500.152 2249.406 C 2500.619 2249.118, 2501 2039.857, 2501 1784.382 C 2501 1474.970, 2500.666 1320.088, 2500 1320.500 C 2499.393 1320.875, 2498.998 1319.426, 2498.995 1316.809 C 2498.988 1310.075, 2495.420 1287.483, 2492.462 1275.438 C 2483.818 1240.246, 2465.774 1203.163, 2443.105 1174.003 C 2427.932 1154.484, 2403.269 1131.511, 2382.500 1117.548 C 2341.972 1090.302, 2298.418 1075.311, 2250.269 1072.036 C 2232.418 1070.821, 265.713 1070.869, 247.757 1072.084 M 254.500 1251.107 C 235.339 1253.877, 217.940 1263.005, 203.931 1277.638 C 192.442 1289.640, 186.217 1300.349, 181.721 1315.843 L 179.500 1323.500 179.500 1786 L 179.500 2248.500 182.316 2257.500 C 191.393 2286.513, 213.487 2308.607, 242.500 2317.684 L 251.500 2320.500 1250 2320.500 L 2248.500 2320.500 2257.500 2317.691 C 2286.303 2308.702, 2308.702 2286.303, 2317.691 2257.500 L 2320.500 2248.500 2320.500 1786 C 2320.500 1340.127, 2320.434 1323.266, 2318.662 1317 C 2314.234 1301.340, 2307.460 1289.538, 2296.069 1277.638 C 2284.437 1265.488, 2270.972 1257.432, 2254.500 1252.766 L 2246.500 1250.500 1253.500 1250.370 C 697.297 1250.297, 257.861 1250.621, 254.500 1251.107 M 0.496 1785.500 C 0.496 2041.250, 0.610 2145.726, 0.750 2017.668 C 0.890 1889.611, 0.890 1680.361, 0.750 1552.668 C 0.610 1424.976, 0.496 1529.750, 0.496 1785.500 M 1231.966 1429.041 C 1167.874 1432.067, 1106.940 1452.061, 1053.101 1487.733 C 961.620 1548.346, 903.011 1647.044, 894.014 1755.638 C 891.946 1780.606, 892.966 1813.301, 896.583 1838 C 913.307 1952.172, 985.120 2051.911, 1088.130 2104.032 C 1119.855 2120.084, 1146.093 2129.234, 1179.529 2135.904 C 1205.914 2141.167, 1219.625 2142.438, 1250 2142.438 C 1287.108 2142.438, 1314.612 2138.794, 1347.471 2129.523 C 1400.780 2114.483, 1450.672 2086.480, 1491.500 2048.683 C 1554.808 1990.077, 1592.424 1917.419, 1604.536 1830.350 C 1606.609 1815.447, 1607.515 1774.793, 1606.152 1757.807 C 1594.208 1608.960, 1492.453 1484.289, 1348.500 1442.132 C 1325.632 1435.435, 1297.423 1430.634, 1274.475 1429.535 C 1267.889 1429.219, 1259.125 1428.814, 1255 1428.634 C 1250.875 1428.454, 1240.510 1428.637, 1231.966 1429.041 M 1236 1608.053 C 1167.327 1613.142, 1105.995 1659.721, 1082.670 1724.500 C 1075.147 1745.392, 1072 1763.605, 1072 1786.243 C 1072.001 1833.165, 1089.373 1875.747, 1122.431 1909.858 C 1149.640 1937.935, 1184.124 1955.774, 1223.500 1962.144 C 1233.868 1963.821, 1266.132 1963.821, 1276.500 1962.144 C 1315.876 1955.774, 1350.360 1937.935, 1377.569 1909.858 C 1410.596 1875.779, 1427.926 1833.286, 1427.982 1786.243 C 1428.040 1737.567, 1410.154 1694.094, 1376.030 1659.970 C 1338.792 1622.732, 1288.671 1604.149, 1236 1608.053" stroke="none" fill="#000000" fill-rule="evenodd"></path>
</svg>