<svg xmlns="http://www.w3.org/2000/svg" width="48" height="48" viewBox="0 0 2500 2500" version="1.1">
	<path d="M 1205 0.587 C 1156.563 2.744, 1119.741 5.932, 1078 11.582 C 907.089 34.717, 738.119 95.847, 589.500 188.314 C 471.607 261.664, 364.013 357.147, 274.902 467.500 C 183.507 580.681, 110.839 713.805, 64.018 853.828 C 32.522 948.018, 13.095 1041.993, 4.547 1141.500 C 1.148 1181.066, 0.528 1197.765, 0.519 1250 C 0.508 1309.430, 1.992 1338.892, 7.542 1389.500 C 27.656 1572.887, 89.934 1752.378, 188.314 1910.500 C 272.288 2045.469, 384.980 2166.549, 515 2261.503 C 615.897 2335.188, 732.635 2395.317, 853.500 2435.854 C 947.420 2467.354, 1041.825 2486.891, 1141.500 2495.453 C 1181.208 2498.865, 1197.719 2499.477, 1250 2499.477 C 1309.506 2499.477, 1339.061 2497.990, 1389.500 2492.458 C 1572.887 2472.344, 1752.378 2410.066, 1910.500 2311.686 C 1942.590 2291.720, 1982.227 2264.216, 2011.500 2241.601 C 2052.734 2209.745, 2076.925 2188.657, 2132.113 2136.459 C 2138.676 2130.251, 2168.052 2098.891, 2183.126 2082 C 2296.142 1955.363, 2381.727 1807.883, 2435.854 1646.500 C 2466.661 1554.648, 2486.102 1461.860, 2495.026 1364.089 C 2496.884 1343.737, 2498.993 1308.758, 2498.997 1298.250 C 2498.999 1292.086, 2499.399 1288, 2500 1288 C 2500.649 1288, 2501 1274.480, 2501 1249.441 C 2501 1223.990, 2500.660 1211.092, 2500 1211.500 C 2499.358 1211.897, 2498.999 1208.426, 2498.997 1201.809 C 2498.991 1184.904, 2495.950 1142.471, 2492.453 1110.500 C 2472.420 927.347, 2410.058 747.610, 2311.686 589.500 C 2266.424 516.751, 2214.075 449.469, 2154.131 387 C 2049.696 278.166, 1937.402 195.389, 1805.500 130.010 C 1654.683 55.256, 1502.861 14.427, 1331.055 2.419 C 1311.071 1.023, 1223.725 -0.247, 1205 0.587 M 1156.500 182.729 C 1154.850 182.894, 1146.300 183.727, 1137.500 184.579 C 1062.786 191.814, 981.463 209.557, 907 234.868 C 771.305 280.993, 651.771 350.031, 543 445.099 C 511.873 472.305, 458.772 526.498, 430.414 560 C 295.344 719.575, 208.958 919.803, 185.576 1127.500 C 176.722 1206.143, 176.722 1293.857, 185.576 1372.500 C 210.952 1597.906, 310.138 1813.223, 464.743 1978.527 C 481.043 1995.955, 518.063 2032.576, 532.500 2045.555 C 636.238 2138.812, 751.650 2208.400, 882.107 2256.353 C 938.127 2276.944, 997.719 2293.220, 1056.126 2303.882 C 1182.057 2326.869, 1317.844 2326.860, 1444 2303.856 C 1604.589 2274.573, 1761.337 2206.022, 1891.500 2108.151 C 1904.622 2098.284, 1930.146 2077.982, 1938 2071.162 L 1941.500 2068.124 1559.962 1686.312 C 1204.587 1330.681, 1178.095 1303.938, 1173.608 1296.304 C 1168.025 1286.805, 1164.784 1278.402, 1162.572 1267.695 C 1161.154 1260.830, 1161 1207.332, 1161 721.601 C 1161 425.435, 1160.662 182.963, 1160.250 182.773 C 1159.838 182.584, 1158.150 182.564, 1156.500 182.729 M 1339.494 182.839 C 1339.222 183.111, 1339 414.896, 1339 697.917 L 1339 1212.501 1703.560 1577.001 L 2068.119 1941.500 2071.160 1938 C 2077.946 1930.190, 2098.267 1904.646, 2108.151 1891.500 C 2206.005 1761.360, 2274.578 1604.560, 2303.856 1444 C 2327.959 1311.815, 2326.759 1169.267, 2300.440 1038.234 C 2276.677 919.926, 2231.617 803.587, 2169.142 699.237 C 2118.128 614.030, 2056.243 537.803, 1979.688 465.873 C 1925.985 415.415, 1864.493 369.014, 1800.763 330.858 C 1745.669 297.873, 1683.735 268.126, 1623 245.478 C 1539.339 214.281, 1446.813 192.680, 1362 184.546 C 1352.925 183.675, 1344.260 182.824, 1342.744 182.654 C 1341.229 182.484, 1339.766 182.567, 1339.494 182.839 M 0.455 1250.500 C 0.455 1271.950, 0.587 1280.583, 0.749 1269.684 C 0.911 1258.785, 0.910 1241.235, 0.748 1230.684 C 0.587 1220.133, 0.454 1229.050, 0.455 1250.500" stroke="none" fill="#000000" fill-rule="evenodd"></path>
</svg>