<svg xmlns="http://www.w3.org/2000/svg" width="48" height="48" viewBox="0 0 2500 2500" version="1.1">
	<path d="M 1157 0.686 C 1145.382 1.554, 1122.674 5.371, 1110.695 8.468 C 1030.848 29.111, 964.601 85.552, 931.664 161 C 929.623 165.675, 913.158 207.750, 895.074 254.500 L 862.194 339.500 757.325 399.104 L 652.455 458.708 565.478 445.402 C 461.572 429.506, 457.552 429.003, 434.458 429.001 C 356.151 428.996, 282.739 462.789, 231.341 522.500 C 215.751 540.612, 211.169 547.941, 166.327 626.500 C 124.545 699.697, 123.333 701.892, 117.899 714.194 C 79.199 801.801, 90.353 904.224, 146.955 981 C 149.996 985.125, 178.475 1020.763, 210.242 1060.195 L 268 1131.891 268 1250.305 L 268 1368.719 214.722 1436.610 C 185.419 1473.949, 157.963 1509.100, 153.707 1514.722 C 123.276 1554.924, 105.554 1599.477, 100.023 1649.690 C 98.423 1664.208, 98.628 1694.304, 100.424 1708.500 C 104.965 1744.405, 114.878 1775.624, 131.224 1805.500 C 143.905 1828.678, 205.729 1936.358, 211.944 1946.093 C 223.710 1964.522, 233.001 1976.048, 248.976 1992.034 C 264.709 2007.777, 277.212 2018.028, 293.470 2028.512 C 337.242 2056.737, 385.836 2071.020, 437.994 2070.990 C 460.974 2070.977, 465.856 2070.369, 565.894 2055.070 C 612.861 2047.887, 652.461 2041.934, 653.894 2041.842 C 655.702 2041.726, 687.736 2059.658, 758.500 2100.397 C 814.600 2132.693, 860.987 2159.654, 861.582 2160.309 C 862.177 2160.964, 876.730 2197.950, 893.921 2242.500 C 926.791 2327.680, 933.294 2343.744, 940.112 2356.606 C 979.216 2430.377, 1050.501 2482.276, 1131.500 2495.943 C 1153.533 2499.661, 1163.630 2499.999, 1252.500 2499.988 C 1322.328 2499.981, 1342.263 2499.686, 1353.500 2498.497 C 1411.724 2492.336, 1462.280 2469.678, 1507.281 2429.575 C 1531.969 2407.574, 1557.173 2372.667, 1570.665 2341.787 C 1572.656 2337.229, 1589.439 2294.453, 1607.959 2246.729 L 1641.632 2159.958 1744.850 2100.581 C 1803.435 2066.880, 1848.810 2041.376, 1849.784 2041.600 C 1854.141 2042.604, 2029.629 2068.993, 2038.211 2069.934 C 2061.252 2072.463, 2092.343 2070.891, 2118 2065.900 C 2173.833 2055.040, 2228.846 2023.302, 2265.903 1980.573 C 2284.589 1959.028, 2287.183 1954.929, 2333.684 1873.473 C 2375.445 1800.322, 2376.665 1798.112, 2382.101 1785.806 C 2420.772 1698.264, 2409.598 1595.637, 2353.050 1519 C 2350.006 1514.875, 2321.525 1479.237, 2289.758 1439.805 L 2232 1368.109 2232 1249.683 L 2232 1131.257 2285.279 1063.379 C 2314.582 1026.045, 2342.039 990.900, 2346.294 985.278 C 2376.762 945.022, 2394.262 900.976, 2400.021 850.046 C 2401.536 836.649, 2401.298 805.649, 2399.570 791.500 C 2395.307 756.574, 2385.033 724.214, 2368.776 694.500 C 2356.095 671.322, 2294.271 563.642, 2288.056 553.907 C 2276.290 535.478, 2266.999 523.952, 2251.024 507.966 C 2235.291 492.223, 2222.788 481.972, 2206.530 471.488 C 2171.711 449.036, 2133.446 435.330, 2092.006 430.466 C 2077.456 428.759, 2049.151 428.547, 2035.211 430.041 C 2029.870 430.613, 1985.675 437.136, 1937 444.537 C 1888.325 451.937, 1847.375 458.068, 1846 458.161 C 1844.324 458.274, 1809.891 438.980, 1741.500 399.606 C 1685.400 367.308, 1639.013 340.346, 1638.418 339.691 C 1637.822 339.036, 1623.267 302.050, 1606.073 257.500 C 1572.592 170.755, 1566.820 156.535, 1559.391 142.500 C 1520.861 69.713, 1449.079 17.653, 1368.500 4.057 C 1346.267 0.305, 1336.704 -0.003, 1248 0.176 C 1200.425 0.271, 1159.475 0.501, 1157 0.686 M 1163.500 179.715 C 1151.992 181.306, 1136.126 187.869, 1125.656 195.367 C 1113.597 204.005, 1102.026 217.904, 1096.515 230.373 C 1095.269 233.193, 1076.831 280.500, 1055.543 335.500 C 1034.255 390.500, 1015.501 438.146, 1013.868 441.379 C 1006.974 455.031, 996.707 467.051, 985.366 474.750 C 977.488 480.097, 714.179 629.547, 706.289 633.149 C 693.778 638.861, 685.886 640.443, 670 640.424 C 656.282 640.408, 649.813 639.528, 550 624.096 C 432.724 605.965, 431.231 605.810, 414.293 610.050 C 393.862 615.165, 376.693 626.185, 364.518 642 C 358.376 649.977, 284.218 779.989, 280.259 789.720 C 271.352 811.613, 271.976 838.351, 281.888 859.502 C 284.138 864.303, 287.621 870.518, 289.628 873.312 C 291.636 876.105, 322.171 914.207, 357.486 957.982 C 392.800 1001.757, 424.241 1040.870, 427.355 1044.900 C 433.997 1053.497, 440.231 1065.669, 443.026 1075.500 C 446.895 1089.103, 447.116 1099.922, 446.776 1259 L 446.447 1412.500 444.141 1421 C 441.135 1432.078, 434.499 1445.728, 427.830 1454.551 C 424.898 1458.429, 393.250 1498.841, 357.500 1544.355 C 316.894 1596.051, 290.924 1629.981, 288.301 1634.763 C 275.627 1657.871, 273.929 1685.205, 283.637 1709.853 C 285.077 1713.509, 304.081 1747.775, 325.868 1786 L 365.482 1855.500 375.491 1865.607 C 388.865 1879.111, 401.642 1886.344, 419.647 1890.602 C 434.900 1894.209, 439.260 1893.731, 557 1875.567 C 663.277 1859.171, 665.746 1858.839, 677.500 1859.351 C 690.081 1859.899, 698.993 1861.872, 709 1866.326 C 715.654 1869.286, 977.045 2019.598, 985.366 2025.249 C 997.638 2033.582, 1010.394 2049.366, 1016.279 2063.500 C 1017.653 2066.800, 1035.759 2113.375, 1056.515 2167 C 1077.271 2220.625, 1095.316 2266.907, 1096.615 2269.848 C 1102.515 2283.209, 1117.665 2300.300, 1130.282 2307.831 C 1138.876 2312.959, 1150.704 2317.703, 1159.208 2319.433 C 1170.851 2321.800, 1332.289 2321.782, 1343.792 2319.412 C 1370.676 2313.872, 1393.998 2296.165, 1405.543 2272.528 C 1407.431 2268.663, 1426.526 2220.161, 1447.977 2164.746 C 1469.428 2109.332, 1488.507 2060.957, 1490.376 2057.246 C 1497.106 2043.882, 1507.614 2032.205, 1520.520 2023.748 C 1528.058 2018.808, 1783.108 1871.992, 1791.693 1867.650 C 1794.548 1866.206, 1800.848 1863.822, 1805.693 1862.352 C 1813.504 1859.982, 1816.196 1859.674, 1829.500 1859.628 C 1844.005 1859.577, 1847.866 1860.095, 1946.500 1875.319 C 2002.600 1883.978, 2052.213 1891.442, 2056.750 1891.907 C 2072.170 1893.486, 2087.656 1890.797, 2102.677 1883.933 C 2116.185 1877.761, 2126.620 1869.512, 2135.482 1858 C 2141.624 1850.023, 2215.782 1720.011, 2219.741 1710.280 C 2228.648 1688.387, 2228.024 1661.649, 2218.112 1640.498 C 2215.862 1635.697, 2212.379 1629.482, 2210.372 1626.688 C 2208.364 1623.895, 2177.829 1585.793, 2142.514 1542.018 C 2107.200 1498.243, 2075.728 1459.090, 2072.578 1455.012 C 2065.427 1445.758, 2058.866 1432.238, 2055.829 1420.500 L 2053.500 1411.500 2053.500 1250 L 2053.500 1088.500 2055.829 1079.500 C 2058.995 1067.265, 2065.449 1054.254, 2073.695 1043.482 C 2077.477 1038.542, 2108.474 998.950, 2142.578 955.500 C 2176.681 912.050, 2206.073 874.329, 2207.892 871.675 C 2223.541 848.845, 2226.869 816.820, 2216.363 790.147 C 2214.923 786.491, 2195.919 752.225, 2174.132 714 L 2134.518 644.500 2124.509 634.393 C 2111.135 620.889, 2098.358 613.656, 2080.353 609.398 C 2065.100 605.791, 2060.740 606.269, 1943 624.433 C 1836.723 640.829, 1834.254 641.161, 1822.500 640.649 C 1809.919 640.101, 1801.007 638.128, 1791 633.674 C 1784.346 630.714, 1522.955 480.402, 1514.634 474.751 C 1502.362 466.418, 1489.606 450.634, 1483.721 436.500 C 1482.347 433.200, 1464.241 386.625, 1443.485 333 C 1422.729 279.375, 1404.684 233.093, 1403.385 230.152 C 1399.386 221.095, 1392.354 211.551, 1383.637 203.348 C 1374.435 194.687, 1368.066 190.523, 1356.319 185.487 C 1340.994 178.917, 1342.120 178.984, 1249.792 179.150 C 1203.981 179.232, 1165.150 179.486, 1163.500 179.715 M 1230.500 804.066 C 1109.441 808.829, 994.676 863.933, 913.900 956.082 C 846.834 1032.590, 807.904 1130.113, 804.157 1231 C 800.769 1322.218, 822.280 1405.972, 868.753 1482.500 C 914.897 1558.487, 986.555 1621.635, 1067.279 1657.449 C 1132.311 1686.301, 1196.737 1698.539, 1269.250 1695.814 C 1436.878 1689.514, 1588.512 1586.738, 1657.407 1432.726 C 1686.141 1368.491, 1698.540 1303.287, 1695.814 1230.750 C 1690.923 1100.620, 1627.878 978.349, 1523.923 897.382 C 1452.479 841.738, 1360.337 807.412, 1274.500 804.463 C 1266.250 804.180, 1257.025 803.815, 1254 803.653 C 1250.975 803.491, 1240.400 803.677, 1230.500 804.066 M 1235 982.600 C 1156.820 987.857, 1088.491 1023.420, 1040.002 1084.089 C 1009.284 1122.524, 990.775 1167.356, 983.891 1220 C 982.290 1232.237, 982.289 1267.745, 983.888 1280 C 991.460 1338.031, 1013.184 1386.475, 1050.319 1428.145 C 1089.687 1472.319, 1141.917 1501.896, 1200 1512.908 C 1218.375 1516.391, 1228.981 1517.329, 1250 1517.329 C 1271.019 1517.329, 1281.625 1516.391, 1300 1512.908 C 1407.892 1492.453, 1492.453 1407.892, 1512.908 1300 C 1516.391 1281.625, 1517.329 1271.019, 1517.329 1250 C 1517.329 1228.981, 1516.391 1218.375, 1512.908 1200 C 1491.342 1086.248, 1399.502 999.734, 1284.164 984.522 C 1273.114 983.064, 1244.645 981.952, 1235 982.600" stroke="none" fill="#000000" fill-rule="evenodd"></path>
</svg>