<svg xmlns="http://www.w3.org/2000/svg" width="48" height="48" viewBox="0 0 2500 2500" version="1.1">
	<path d="M 1702.675 1.056 C 1698.921 1.492, 1692.396 2.552, 1688.175 3.410 C 1681.132 4.842, 684.016 264.794, 663.500 270.546 C 646.196 275.398, 633.035 283.026, 621.939 294.635 C 610.994 306.086, 603.935 318.283, 599.615 333.212 C 589.336 368.726, 603.794 409.487, 633.928 429.951 C 642.585 435.830, 655.106 441.615, 664.500 444.075 C 675.523 446.962, 693.084 447.018, 705.500 444.204 C 710.450 443.082, 939.682 383.377, 1214.905 311.526 C 1490.128 239.675, 1716.478 180.656, 1717.905 180.372 L 1720.500 179.856 1745.847 281.329 C 1760.965 341.850, 1772.500 386.040, 1774.430 390.826 C 1778.943 402.019, 1783.390 409.063, 1791.354 417.635 C 1803.049 430.222, 1820.866 440.604, 1837.671 444.627 C 1847.784 447.047, 1866.199 446.835, 1877.187 444.173 C 1894.368 440.009, 1905.931 433.860, 1917.828 422.559 C 1938.712 402.721, 1949.029 375.741, 1945.990 348.916 C 1944.769 338.133, 1892.611 128.506, 1888.117 116.317 C 1872.823 74.838, 1840.772 38.929, 1801.479 19.250 C 1770.821 3.896, 1734.997 -2.700, 1702.675 1.056 M 250 714.664 C 130.205 723.041, 30.358 809.772, 5.551 927 C 4.678 931.125, 3.209 938.775, 2.286 944 C 0.730 952.813, 0.583 1000.121, 0.255 1598 C -0.001 2063.935, 0.208 2246.102, 1.009 2255.500 C 12.030 2384.758, 115.257 2487.984, 244.500 2498.989 C 253.914 2499.791, 496.680 2500.008, 1124.500 2499.776 C 1937.058 2499.476, 1992.147 2499.348, 2001.804 2497.745 C 2055.081 2488.899, 2097.998 2469.599, 2136.927 2436.980 C 2180.821 2400.199, 2213.092 2347.492, 2225.426 2292.437 C 2231.858 2263.728, 2231.409 2279.703, 2231.744 2067.818 L 2232.049 1875.136 2287.274 1874.729 C 2348.368 1874.279, 2350.731 1874.077, 2372.527 1867.471 C 2422.676 1852.270, 2463.561 1816.336, 2484.539 1769.022 C 2492.236 1751.661, 2498.346 1728.289, 2499.247 1712.761 C 2499.383 1710.417, 2499.722 1830.225, 2500 1979 C 2500.287 2132.683, 2500.506 1971.600, 2500.506 1606 C 2500.506 1252.075, 2500.279 1064.425, 2500 1189 C 2499.721 1313.575, 2499.382 1413.808, 2499.247 1411.739 C 2498.687 1403.209, 2495.714 1388.171, 2492.471 1377.474 C 2483.605 1348.223, 2469.130 1324.062, 2447.534 1302.466 C 2425.938 1280.870, 2401.777 1266.395, 2372.527 1257.529 C 2350.731 1250.923, 2348.367 1250.721, 2287.281 1250.271 L 2232.063 1249.864 2231.744 1101.682 C 2231.389 936.797, 2231.854 948.393, 2224.379 918 C 2208.299 852.616, 2168.812 796.623, 2111.940 758.562 C 2098.979 749.888, 2071.353 735.863, 2056.640 730.487 C 2034.595 722.433, 2009.533 716.982, 1985.500 715.014 C 1974.716 714.131, 262.560 713.786, 250 714.664 M 253.831 894.021 C 233.988 897.378, 217.921 906.078, 203.151 921.463 C 190.315 934.833, 182.682 950.097, 179.981 967.795 C 179.289 972.328, 179.045 1180.843, 179.229 1611.500 L 179.500 2248.500 182.316 2257.500 C 191.393 2286.513, 213.487 2308.607, 242.500 2317.684 L 251.500 2320.500 1111.500 2320.800 C 1760.937 2321.026, 1973.335 2320.815, 1978.994 2319.937 C 2006.847 2315.620, 2031.862 2296.789, 2044.463 2270.653 C 2053.246 2252.436, 2052.419 2273.235, 2052.743 2062.295 L 2053.031 1875.090 1953.265 1874.702 C 1868.269 1874.372, 1852.316 1874.084, 1845.500 1872.760 C 1806.249 1865.136, 1775.557 1849.270, 1749.164 1822.962 C 1718.215 1792.112, 1700.176 1752.754, 1696.981 1709.107 C 1695.778 1692.675, 1695.778 1432.325, 1696.981 1415.893 C 1702.572 1339.511, 1756.106 1274.863, 1829.500 1255.865 C 1850.020 1250.553, 1846.459 1250.713, 1953.273 1250.298 L 2053.046 1249.910 2052.773 1107.205 L 2052.500 964.500 2049.633 956 C 2044.324 940.265, 2037.498 929.374, 2025.778 917.941 C 2014.699 907.134, 2003.316 900.667, 1986.500 895.625 L 1979.500 893.527 1119 893.379 C 645.725 893.298, 256.399 893.587, 253.831 894.021 M 0.497 1607 C 0.497 1960.925, 0.611 2105.713, 0.750 1928.750 C 0.889 1751.788, 0.889 1462.213, 0.750 1285.250 C 0.611 1108.288, 0.497 1253.075, 0.497 1607 M 1875 1562.500 L 1875 1696 2098 1696 L 2321 1696 2321 1562.500 L 2321 1429 2098 1429 L 1875 1429 1875 1562.500" stroke="none" fill="#000000" fill-rule="evenodd"></path>
</svg>